%TF.GenerationSoftware,KiCad,Pcbnew,8.0.6*%
%TF.CreationDate,2025-07-03T11:32:56-04:00*%
%TF.ProjectId,pcb_reset_buffer,7063625f-7265-4736-9574-5f6275666665,rev?*%
%TF.SameCoordinates,Original*%
%TF.FileFunction,Copper,L2,Bot*%
%TF.FilePolarity,Positive*%
%FSLAX46Y46*%
G04 Gerber Fmt 4.6, Leading zero omitted, Abs format (unit mm)*
G04 Created by KiCad (PCBNEW 8.0.6) date 2025-07-03 11:32:56*
%MOMM*%
%LPD*%
G01*
G04 APERTURE LIST*
G04 Aperture macros list*
%AMRoundRect*
0 Rectangle with rounded corners*
0 $1 Rounding radius*
0 $2 $3 $4 $5 $6 $7 $8 $9 X,Y pos of 4 corners*
0 Add a 4 corners polygon primitive as box body*
4,1,4,$2,$3,$4,$5,$6,$7,$8,$9,$2,$3,0*
0 Add four circle primitives for the rounded corners*
1,1,$1+$1,$2,$3*
1,1,$1+$1,$4,$5*
1,1,$1+$1,$6,$7*
1,1,$1+$1,$8,$9*
0 Add four rect primitives between the rounded corners*
20,1,$1+$1,$2,$3,$4,$5,0*
20,1,$1+$1,$4,$5,$6,$7,0*
20,1,$1+$1,$6,$7,$8,$9,0*
20,1,$1+$1,$8,$9,$2,$3,0*%
G04 Aperture macros list end*
%TA.AperFunction,ComponentPad*%
%ADD10C,1.600000*%
%TD*%
%TA.AperFunction,ComponentPad*%
%ADD11O,1.600000X1.600000*%
%TD*%
%TA.AperFunction,ComponentPad*%
%ADD12C,1.130000*%
%TD*%
%TA.AperFunction,ComponentPad*%
%ADD13R,1.130000X1.130000*%
%TD*%
%TA.AperFunction,SMDPad,CuDef*%
%ADD14RoundRect,0.250000X-1.600000X0.425000X-1.600000X-0.425000X1.600000X-0.425000X1.600000X0.425000X0*%
%TD*%
%TA.AperFunction,ComponentPad*%
%ADD15R,1.700000X1.700000*%
%TD*%
%TA.AperFunction,ComponentPad*%
%ADD16O,1.700000X1.700000*%
%TD*%
%TA.AperFunction,ViaPad*%
%ADD17C,0.600000*%
%TD*%
%TA.AperFunction,Conductor*%
%ADD18C,1.000000*%
%TD*%
G04 APERTURE END LIST*
D10*
%TO.P,R5,1*%
%TO.N,Net-(IC1-3~{OE})*%
X135000000Y-96580000D03*
D11*
%TO.P,R5,2*%
%TO.N,Vcc*%
X135000000Y-86420000D03*
%TD*%
D10*
%TO.P,C1,1*%
%TO.N,Vcc*%
X135000000Y-82750000D03*
%TO.P,C1,2*%
%TO.N,GND*%
X135000000Y-80250000D03*
%TD*%
D12*
%TO.P,IC1,14,VCC*%
%TO.N,Vcc*%
X130470000Y-86425000D03*
%TO.P,IC1,13,4~{OE}*%
%TO.N,unconnected-(IC1-4~{OE}-Pad13)*%
X130470000Y-88965000D03*
%TO.P,IC1,12,4A*%
%TO.N,2A*%
X130470000Y-91505000D03*
%TO.P,IC1,11,4Y*%
%TO.N,unconnected-(IC1-4Y-Pad11)*%
X130470000Y-94045000D03*
%TO.P,IC1,10,3~{OE}*%
%TO.N,Net-(IC1-3~{OE})*%
X130470000Y-96585000D03*
%TO.P,IC1,9,3A*%
%TO.N,2A*%
X130470000Y-99125000D03*
%TO.P,IC1,8,3Y*%
%TO.N,unconnected-(IC1-3Y-Pad8)*%
X130470000Y-101665000D03*
%TO.P,IC1,7,GND*%
%TO.N,GND*%
X122530000Y-101665000D03*
%TO.P,IC1,6,2Y*%
%TO.N,unconnected-(IC1-2Y-Pad6)*%
X122530000Y-99125000D03*
%TO.P,IC1,5,2A*%
%TO.N,2A*%
X122530000Y-96585000D03*
%TO.P,IC1,4,2~{OE}*%
%TO.N,unconnected-(IC1-2~{OE}-Pad4)*%
X122530000Y-94045000D03*
%TO.P,IC1,3,1Y*%
%TO.N,1Y*%
X122530000Y-91505000D03*
%TO.P,IC1,2,1A*%
%TO.N,Net-(IC1-1A)*%
X122530000Y-88965000D03*
D13*
%TO.P,IC1,1,1~{OE}*%
%TO.N,Net-(IC1-1~{OE})*%
X122530000Y-86425000D03*
%TD*%
D10*
%TO.P,R2,1*%
%TO.N,GND*%
X104920000Y-95000000D03*
D11*
%TO.P,R2,2*%
%TO.N,Net-(IC1-1A)*%
X115080000Y-95000000D03*
%TD*%
D10*
%TO.P,R3,1*%
%TO.N,Net-(IC1-1~{OE})*%
X115080000Y-83000000D03*
D11*
%TO.P,R3,2*%
%TO.N,GND*%
X104920000Y-83000000D03*
%TD*%
D14*
%TO.P,J1,2,Ext*%
%TO.N,GND*%
X96912500Y-91825000D03*
X96912500Y-86175000D03*
%TD*%
D10*
%TO.P,R4,1*%
%TO.N,GND*%
X116000000Y-78545000D03*
D11*
%TO.P,R4,2*%
%TO.N,2A*%
X126160000Y-78545000D03*
%TD*%
D10*
%TO.P,R1,1*%
%TO.N,Net-(J1-In)*%
X104920000Y-89000000D03*
D11*
%TO.P,R1,2*%
%TO.N,Net-(IC1-1A)*%
X115080000Y-89000000D03*
%TD*%
D15*
%TO.P,J2,1,Pin_1*%
%TO.N,Vcc*%
X142960000Y-72020000D03*
D16*
%TO.P,J2,2,Pin_2*%
X145500000Y-72020000D03*
%TO.P,J2,3,Pin_3*%
%TO.N,GND*%
X142960000Y-74560000D03*
%TO.P,J2,4,Pin_4*%
X145500000Y-74560000D03*
%TO.P,J2,5,Pin_5*%
%TO.N,unconnected-(J2-Pin_5-Pad5)*%
X142960000Y-77100000D03*
%TO.P,J2,6,Pin_6*%
%TO.N,unconnected-(J2-Pin_6-Pad6)*%
X145500000Y-77100000D03*
%TO.P,J2,7,Pin_7*%
%TO.N,unconnected-(J2-Pin_7-Pad7)*%
X142960000Y-79640000D03*
%TO.P,J2,8,Pin_8*%
%TO.N,unconnected-(J2-Pin_8-Pad8)*%
X145500000Y-79640000D03*
%TO.P,J2,9,Pin_9*%
%TO.N,unconnected-(J2-Pin_9-Pad9)*%
X142960000Y-82180000D03*
%TO.P,J2,10,Pin_10*%
%TO.N,unconnected-(J2-Pin_10-Pad10)*%
X145500000Y-82180000D03*
%TO.P,J2,11,Pin_11*%
%TO.N,unconnected-(J2-Pin_11-Pad11)*%
X142960000Y-84720000D03*
%TO.P,J2,12,Pin_12*%
%TO.N,unconnected-(J2-Pin_12-Pad12)*%
X145500000Y-84720000D03*
%TO.P,J2,13,Pin_13*%
%TO.N,unconnected-(J2-Pin_13-Pad13)*%
X142960000Y-87260000D03*
%TO.P,J2,14,Pin_14*%
%TO.N,unconnected-(J2-Pin_14-Pad14)*%
X145500000Y-87260000D03*
%TO.P,J2,15,Pin_15*%
%TO.N,unconnected-(J2-Pin_15-Pad15)*%
X142960000Y-89800000D03*
%TO.P,J2,16,Pin_16*%
%TO.N,unconnected-(J2-Pin_16-Pad16)*%
X145500000Y-89800000D03*
%TO.P,J2,17,Pin_17*%
%TO.N,unconnected-(J2-Pin_17-Pad17)*%
X142960000Y-92340000D03*
%TO.P,J2,18,Pin_18*%
%TO.N,unconnected-(J2-Pin_18-Pad18)*%
X145500000Y-92340000D03*
%TO.P,J2,19,Pin_19*%
%TO.N,Net-(J2-Pin_19)*%
X142960000Y-94880000D03*
%TO.P,J2,20,Pin_20*%
X145500000Y-94880000D03*
%TO.P,J2,21,Pin_21*%
%TO.N,GND*%
X142960000Y-97420000D03*
%TO.P,J2,22,Pin_22*%
X145500000Y-97420000D03*
%TO.P,J2,23,Pin_23*%
%TO.N,unconnected-(J2-Pin_23-Pad23)*%
X142960000Y-99960000D03*
%TO.P,J2,24,Pin_24*%
%TO.N,unconnected-(J2-Pin_24-Pad24)*%
X145500000Y-99960000D03*
%TO.P,J2,25,Pin_25*%
%TO.N,unconnected-(J2-Pin_25-Pad25)*%
X142960000Y-102500000D03*
%TO.P,J2,26,Pin_26*%
%TO.N,unconnected-(J2-Pin_26-Pad26)*%
X145500000Y-102500000D03*
%TO.P,J2,27,Pin_27*%
%TO.N,unconnected-(J2-Pin_27-Pad27)*%
X142960000Y-105040000D03*
%TO.P,J2,28,Pin_28*%
%TO.N,unconnected-(J2-Pin_28-Pad28)*%
X145500000Y-105040000D03*
%TO.P,J2,29,Pin_29*%
%TO.N,1Y*%
X142960000Y-107580000D03*
%TO.P,J2,30,Pin_30*%
%TO.N,unconnected-(J2-Pin_30-Pad30)*%
X145500000Y-107580000D03*
%TD*%
D17*
%TO.N,GND*%
X100500000Y-100500000D03*
X110500000Y-102500000D03*
X106500000Y-77500000D03*
X134500000Y-103000000D03*
%TD*%
D18*
%TO.N,2A*%
X126665000Y-91505000D02*
X126160000Y-91000000D01*
X127000000Y-91505000D02*
X126665000Y-91505000D01*
X126160000Y-92000000D02*
X126160000Y-91000000D01*
X126160000Y-91000000D02*
X126160000Y-78545000D01*
X127000000Y-91505000D02*
X126655000Y-91505000D01*
X130470000Y-91505000D02*
X127000000Y-91505000D01*
X126655000Y-91505000D02*
X126160000Y-92000000D01*
X126160000Y-96000000D02*
X126160000Y-92000000D01*
X125000000Y-96585000D02*
X125575000Y-96585000D01*
X126160000Y-97160000D02*
X126160000Y-96000000D01*
X125000000Y-96585000D02*
X125585000Y-96585000D01*
X122530000Y-96585000D02*
X125000000Y-96585000D01*
X125575000Y-96585000D02*
X126160000Y-96000000D01*
X125585000Y-96585000D02*
X126160000Y-97160000D01*
X128125000Y-99125000D02*
X126160000Y-97160000D01*
X130470000Y-99125000D02*
X128125000Y-99125000D01*
%TO.N,Vcc*%
X139000000Y-74000000D02*
X140980000Y-72020000D01*
X139000000Y-84000000D02*
X139000000Y-74000000D01*
X136580000Y-86420000D02*
X139000000Y-84000000D01*
X140980000Y-72020000D02*
X142960000Y-72020000D01*
X135000000Y-86420000D02*
X136580000Y-86420000D01*
%TO.N,1Y*%
X121580000Y-107580000D02*
X142960000Y-107580000D01*
X118000000Y-104000000D02*
X121580000Y-107580000D01*
X120495000Y-91505000D02*
X118000000Y-94000000D01*
X122530000Y-91505000D02*
X120495000Y-91505000D01*
X118000000Y-94000000D02*
X118000000Y-104000000D01*
%TD*%
%TA.AperFunction,Conductor*%
%TO.N,GND*%
G36*
X145034075Y-97227007D02*
G01*
X145000000Y-97354174D01*
X145000000Y-97485826D01*
X145034075Y-97612993D01*
X145066988Y-97670000D01*
X143393012Y-97670000D01*
X143425925Y-97612993D01*
X143460000Y-97485826D01*
X143460000Y-97354174D01*
X143425925Y-97227007D01*
X143393012Y-97170000D01*
X145066988Y-97170000D01*
X145034075Y-97227007D01*
G37*
%TD.AperFunction*%
%TA.AperFunction,Conductor*%
G36*
X145034075Y-74367007D02*
G01*
X145000000Y-74494174D01*
X145000000Y-74625826D01*
X145034075Y-74752993D01*
X145066988Y-74810000D01*
X143393012Y-74810000D01*
X143425925Y-74752993D01*
X143460000Y-74625826D01*
X143460000Y-74494174D01*
X143425925Y-74367007D01*
X143393012Y-74310000D01*
X145066988Y-74310000D01*
X145034075Y-74367007D01*
G37*
%TD.AperFunction*%
%TA.AperFunction,Conductor*%
G36*
X155442539Y-66520185D02*
G01*
X155488294Y-66572989D01*
X155499500Y-66624500D01*
X155499500Y-112875500D01*
X155479815Y-112942539D01*
X155427011Y-112988294D01*
X155375500Y-112999500D01*
X95124500Y-112999500D01*
X95057461Y-112979815D01*
X95011706Y-112927011D01*
X95000500Y-112875500D01*
X95000500Y-108885258D01*
X97249500Y-108885258D01*
X97249500Y-109114741D01*
X97274446Y-109304215D01*
X97279452Y-109342238D01*
X97279453Y-109342240D01*
X97338842Y-109563887D01*
X97426650Y-109775876D01*
X97426657Y-109775890D01*
X97541392Y-109974617D01*
X97681081Y-110156661D01*
X97681089Y-110156670D01*
X97843330Y-110318911D01*
X97843338Y-110318918D01*
X98025382Y-110458607D01*
X98025385Y-110458608D01*
X98025388Y-110458611D01*
X98224112Y-110573344D01*
X98224117Y-110573346D01*
X98224123Y-110573349D01*
X98315480Y-110611190D01*
X98436113Y-110661158D01*
X98657762Y-110720548D01*
X98885266Y-110750500D01*
X98885273Y-110750500D01*
X99114727Y-110750500D01*
X99114734Y-110750500D01*
X99342238Y-110720548D01*
X99563887Y-110661158D01*
X99775888Y-110573344D01*
X99974612Y-110458611D01*
X100156661Y-110318919D01*
X100156665Y-110318914D01*
X100156670Y-110318911D01*
X100318911Y-110156670D01*
X100318914Y-110156665D01*
X100318919Y-110156661D01*
X100458611Y-109974612D01*
X100573344Y-109775888D01*
X100661158Y-109563887D01*
X100720548Y-109342238D01*
X100750500Y-109114734D01*
X100750500Y-108885266D01*
X100720548Y-108657762D01*
X100661158Y-108436113D01*
X100587311Y-108257830D01*
X100573349Y-108224123D01*
X100573346Y-108224117D01*
X100573344Y-108224112D01*
X100458611Y-108025388D01*
X100458608Y-108025385D01*
X100458607Y-108025382D01*
X100318918Y-107843338D01*
X100318911Y-107843330D01*
X100156670Y-107681089D01*
X100156661Y-107681081D01*
X99974617Y-107541392D01*
X99775890Y-107426657D01*
X99775876Y-107426650D01*
X99563887Y-107338842D01*
X99342238Y-107279452D01*
X99304215Y-107274446D01*
X99114741Y-107249500D01*
X99114734Y-107249500D01*
X98885266Y-107249500D01*
X98885258Y-107249500D01*
X98668715Y-107278009D01*
X98657762Y-107279452D01*
X98564076Y-107304554D01*
X98436112Y-107338842D01*
X98224123Y-107426650D01*
X98224109Y-107426657D01*
X98025382Y-107541392D01*
X97843338Y-107681081D01*
X97681081Y-107843338D01*
X97541392Y-108025382D01*
X97426657Y-108224109D01*
X97426650Y-108224123D01*
X97338842Y-108436112D01*
X97330664Y-108466633D01*
X97289974Y-108618495D01*
X97279453Y-108657759D01*
X97279451Y-108657770D01*
X97249500Y-108885258D01*
X95000500Y-108885258D01*
X95000500Y-104098543D01*
X116999499Y-104098543D01*
X117037947Y-104291829D01*
X117037950Y-104291839D01*
X117113364Y-104473907D01*
X117113371Y-104473920D01*
X117222859Y-104637780D01*
X117222860Y-104637781D01*
X117222861Y-104637782D01*
X117362218Y-104777139D01*
X117362219Y-104777139D01*
X117369286Y-104784206D01*
X117369285Y-104784206D01*
X117369289Y-104784209D01*
X120942215Y-108357137D01*
X120942219Y-108357140D01*
X121106079Y-108466628D01*
X121106085Y-108466631D01*
X121106086Y-108466632D01*
X121288165Y-108542052D01*
X121481455Y-108580500D01*
X121481458Y-108580501D01*
X121481460Y-108580501D01*
X121684655Y-108580501D01*
X121684675Y-108580500D01*
X141999242Y-108580500D01*
X142066281Y-108600185D01*
X142086923Y-108616819D01*
X142088599Y-108618495D01*
X142185384Y-108686265D01*
X142282165Y-108754032D01*
X142282167Y-108754033D01*
X142282170Y-108754035D01*
X142496337Y-108853903D01*
X142724592Y-108915063D01*
X142912918Y-108931539D01*
X142959999Y-108935659D01*
X142960000Y-108935659D01*
X142960001Y-108935659D01*
X142999234Y-108932226D01*
X143195408Y-108915063D01*
X143423663Y-108853903D01*
X143637830Y-108754035D01*
X143831401Y-108618495D01*
X143998495Y-108451401D01*
X144128425Y-108265842D01*
X144183002Y-108222217D01*
X144252500Y-108215023D01*
X144314855Y-108246546D01*
X144331575Y-108265842D01*
X144461500Y-108451395D01*
X144461505Y-108451401D01*
X144628599Y-108618495D01*
X144725384Y-108686265D01*
X144822165Y-108754032D01*
X144822167Y-108754033D01*
X144822170Y-108754035D01*
X145036337Y-108853903D01*
X145264592Y-108915063D01*
X145452918Y-108931539D01*
X145499999Y-108935659D01*
X145500000Y-108935659D01*
X145500001Y-108935659D01*
X145539234Y-108932226D01*
X145735408Y-108915063D01*
X145846643Y-108885258D01*
X149749500Y-108885258D01*
X149749500Y-109114741D01*
X149774446Y-109304215D01*
X149779452Y-109342238D01*
X149779453Y-109342240D01*
X149838842Y-109563887D01*
X149926650Y-109775876D01*
X149926657Y-109775890D01*
X150041392Y-109974617D01*
X150181081Y-110156661D01*
X150181089Y-110156670D01*
X150343330Y-110318911D01*
X150343338Y-110318918D01*
X150525382Y-110458607D01*
X150525385Y-110458608D01*
X150525388Y-110458611D01*
X150724112Y-110573344D01*
X150724117Y-110573346D01*
X150724123Y-110573349D01*
X150815480Y-110611190D01*
X150936113Y-110661158D01*
X151157762Y-110720548D01*
X151385266Y-110750500D01*
X151385273Y-110750500D01*
X151614727Y-110750500D01*
X151614734Y-110750500D01*
X151842238Y-110720548D01*
X152063887Y-110661158D01*
X152275888Y-110573344D01*
X152474612Y-110458611D01*
X152656661Y-110318919D01*
X152656665Y-110318914D01*
X152656670Y-110318911D01*
X152818911Y-110156670D01*
X152818914Y-110156665D01*
X152818919Y-110156661D01*
X152958611Y-109974612D01*
X153073344Y-109775888D01*
X153161158Y-109563887D01*
X153220548Y-109342238D01*
X153250500Y-109114734D01*
X153250500Y-108885266D01*
X153220548Y-108657762D01*
X153161158Y-108436113D01*
X153087311Y-108257830D01*
X153073349Y-108224123D01*
X153073346Y-108224117D01*
X153073344Y-108224112D01*
X152958611Y-108025388D01*
X152958608Y-108025385D01*
X152958607Y-108025382D01*
X152818918Y-107843338D01*
X152818911Y-107843330D01*
X152656670Y-107681089D01*
X152656661Y-107681081D01*
X152474617Y-107541392D01*
X152275890Y-107426657D01*
X152275876Y-107426650D01*
X152063887Y-107338842D01*
X151842238Y-107279452D01*
X151804215Y-107274446D01*
X151614741Y-107249500D01*
X151614734Y-107249500D01*
X151385266Y-107249500D01*
X151385258Y-107249500D01*
X151168715Y-107278009D01*
X151157762Y-107279452D01*
X151064076Y-107304554D01*
X150936112Y-107338842D01*
X150724123Y-107426650D01*
X150724109Y-107426657D01*
X150525382Y-107541392D01*
X150343338Y-107681081D01*
X150181081Y-107843338D01*
X150041392Y-108025382D01*
X149926657Y-108224109D01*
X149926650Y-108224123D01*
X149838842Y-108436112D01*
X149830664Y-108466633D01*
X149789974Y-108618495D01*
X149779453Y-108657759D01*
X149779451Y-108657770D01*
X149749500Y-108885258D01*
X145846643Y-108885258D01*
X145963663Y-108853903D01*
X146177830Y-108754035D01*
X146371401Y-108618495D01*
X146538495Y-108451401D01*
X146674035Y-108257830D01*
X146773903Y-108043663D01*
X146835063Y-107815408D01*
X146855659Y-107580000D01*
X146835063Y-107344592D01*
X146773903Y-107116337D01*
X146674035Y-106902171D01*
X146668425Y-106894158D01*
X146538494Y-106708597D01*
X146371402Y-106541506D01*
X146371396Y-106541501D01*
X146185842Y-106411575D01*
X146142217Y-106356998D01*
X146135023Y-106287500D01*
X146166546Y-106225145D01*
X146185842Y-106208425D01*
X146208026Y-106192891D01*
X146371401Y-106078495D01*
X146538495Y-105911401D01*
X146674035Y-105717830D01*
X146773903Y-105503663D01*
X146835063Y-105275408D01*
X146855659Y-105040000D01*
X146835063Y-104804592D01*
X146773903Y-104576337D01*
X146674035Y-104362171D01*
X146668425Y-104354158D01*
X146538494Y-104168597D01*
X146371402Y-104001506D01*
X146371396Y-104001501D01*
X146185842Y-103871575D01*
X146142217Y-103816998D01*
X146135023Y-103747500D01*
X146166546Y-103685145D01*
X146185842Y-103668425D01*
X146304158Y-103585579D01*
X146371401Y-103538495D01*
X146538495Y-103371401D01*
X146674035Y-103177830D01*
X146773903Y-102963663D01*
X146835063Y-102735408D01*
X146855659Y-102500000D01*
X146835063Y-102264592D01*
X146773903Y-102036337D01*
X146674035Y-101822171D01*
X146668425Y-101814158D01*
X146538494Y-101628597D01*
X146371402Y-101461506D01*
X146371396Y-101461501D01*
X146185842Y-101331575D01*
X146142217Y-101276998D01*
X146135023Y-101207500D01*
X146166546Y-101145145D01*
X146185842Y-101128425D01*
X146269033Y-101070174D01*
X146371401Y-100998495D01*
X146538495Y-100831401D01*
X146674035Y-100637830D01*
X146773903Y-100423663D01*
X146835063Y-100195408D01*
X146855659Y-99960000D01*
X146835063Y-99724592D01*
X146773903Y-99496337D01*
X146674035Y-99282171D01*
X146668425Y-99274158D01*
X146538494Y-99088597D01*
X146371402Y-98921506D01*
X146371401Y-98921505D01*
X146185405Y-98791269D01*
X146141781Y-98736692D01*
X146134588Y-98667193D01*
X146166110Y-98604839D01*
X146185405Y-98588119D01*
X146371082Y-98458105D01*
X146538105Y-98291082D01*
X146673600Y-98097578D01*
X146773429Y-97883492D01*
X146773432Y-97883486D01*
X146830636Y-97670000D01*
X145933012Y-97670000D01*
X145965925Y-97612993D01*
X146000000Y-97485826D01*
X146000000Y-97354174D01*
X145965925Y-97227007D01*
X145933012Y-97170000D01*
X146830636Y-97170000D01*
X146830635Y-97169999D01*
X146773432Y-96956513D01*
X146773429Y-96956507D01*
X146673600Y-96742422D01*
X146673599Y-96742420D01*
X146538113Y-96548926D01*
X146538108Y-96548920D01*
X146371078Y-96381890D01*
X146185405Y-96251879D01*
X146141780Y-96197302D01*
X146134588Y-96127804D01*
X146166110Y-96065449D01*
X146185406Y-96048730D01*
X146371401Y-95918495D01*
X146538495Y-95751401D01*
X146674035Y-95557830D01*
X146773903Y-95343663D01*
X146835063Y-95115408D01*
X146855659Y-94880000D01*
X146835063Y-94644592D01*
X146773903Y-94416337D01*
X146674035Y-94202171D01*
X146668425Y-94194158D01*
X146538494Y-94008597D01*
X146371402Y-93841506D01*
X146371396Y-93841501D01*
X146185842Y-93711575D01*
X146142217Y-93656998D01*
X146135023Y-93587500D01*
X146166546Y-93525145D01*
X146185842Y-93508425D01*
X146269033Y-93450174D01*
X146371401Y-93378495D01*
X146538495Y-93211401D01*
X146674035Y-93017830D01*
X146773903Y-92803663D01*
X146835063Y-92575408D01*
X146855659Y-92340000D01*
X146835063Y-92104592D01*
X146773903Y-91876337D01*
X146674035Y-91662171D01*
X146668425Y-91654158D01*
X146538494Y-91468597D01*
X146371402Y-91301506D01*
X146371396Y-91301501D01*
X146185842Y-91171575D01*
X146142217Y-91116998D01*
X146135023Y-91047500D01*
X146166546Y-90985145D01*
X146185842Y-90968425D01*
X146330380Y-90867218D01*
X146371401Y-90838495D01*
X146538495Y-90671401D01*
X146674035Y-90477830D01*
X146773903Y-90263663D01*
X146835063Y-90035408D01*
X146855659Y-89800000D01*
X146835063Y-89564592D01*
X146773903Y-89336337D01*
X146674035Y-89122171D01*
X146668425Y-89114158D01*
X146538494Y-88928597D01*
X146371402Y-88761506D01*
X146371396Y-88761501D01*
X146185842Y-88631575D01*
X146142217Y-88576998D01*
X146135023Y-88507500D01*
X146166546Y-88445145D01*
X146185842Y-88428425D01*
X146301747Y-88347267D01*
X146371401Y-88298495D01*
X146538495Y-88131401D01*
X146674035Y-87937830D01*
X146773903Y-87723663D01*
X146835063Y-87495408D01*
X146855659Y-87260000D01*
X146835063Y-87024592D01*
X146773903Y-86796337D01*
X146674035Y-86582171D01*
X146668425Y-86574158D01*
X146538494Y-86388597D01*
X146371402Y-86221506D01*
X146371396Y-86221501D01*
X146185842Y-86091575D01*
X146142217Y-86036998D01*
X146135023Y-85967500D01*
X146166546Y-85905145D01*
X146185842Y-85888425D01*
X146294795Y-85812135D01*
X146371401Y-85758495D01*
X146538495Y-85591401D01*
X146674035Y-85397830D01*
X146773903Y-85183663D01*
X146835063Y-84955408D01*
X146855659Y-84720000D01*
X146835063Y-84484592D01*
X146773903Y-84256337D01*
X146674035Y-84042171D01*
X146669459Y-84035635D01*
X146538494Y-83848597D01*
X146371402Y-83681506D01*
X146371396Y-83681501D01*
X146185842Y-83551575D01*
X146142217Y-83496998D01*
X146135023Y-83427500D01*
X146166546Y-83365145D01*
X146185842Y-83348425D01*
X146326407Y-83250000D01*
X146371401Y-83218495D01*
X146538495Y-83051401D01*
X146674035Y-82857830D01*
X146773903Y-82643663D01*
X146835063Y-82415408D01*
X146855659Y-82180000D01*
X146835063Y-81944592D01*
X146782910Y-81749953D01*
X146773905Y-81716344D01*
X146773904Y-81716343D01*
X146773903Y-81716337D01*
X146674035Y-81502171D01*
X146673010Y-81500706D01*
X146538494Y-81308597D01*
X146371402Y-81141506D01*
X146371396Y-81141501D01*
X146185842Y-81011575D01*
X146142217Y-80956998D01*
X146135023Y-80887500D01*
X146166546Y-80825145D01*
X146185842Y-80808425D01*
X146208026Y-80792891D01*
X146371401Y-80678495D01*
X146538495Y-80511401D01*
X146674035Y-80317830D01*
X146773903Y-80103663D01*
X146835063Y-79875408D01*
X146855659Y-79640000D01*
X146835063Y-79404592D01*
X146773903Y-79176337D01*
X146674035Y-78962171D01*
X146668425Y-78954158D01*
X146538494Y-78768597D01*
X146371402Y-78601506D01*
X146371396Y-78601501D01*
X146185842Y-78471575D01*
X146142217Y-78416998D01*
X146135023Y-78347500D01*
X146166546Y-78285145D01*
X146185842Y-78268425D01*
X146247973Y-78224920D01*
X146371401Y-78138495D01*
X146538495Y-77971401D01*
X146674035Y-77777830D01*
X146773903Y-77563663D01*
X146835063Y-77335408D01*
X146855659Y-77100000D01*
X146835063Y-76864592D01*
X146773903Y-76636337D01*
X146674035Y-76422171D01*
X146668425Y-76414158D01*
X146538494Y-76228597D01*
X146371402Y-76061506D01*
X146371401Y-76061505D01*
X146185405Y-75931269D01*
X146141781Y-75876692D01*
X146134588Y-75807193D01*
X146166110Y-75744839D01*
X146185405Y-75728119D01*
X146371082Y-75598105D01*
X146538105Y-75431082D01*
X146673600Y-75237578D01*
X146773429Y-75023492D01*
X146773432Y-75023486D01*
X146830636Y-74810000D01*
X145933012Y-74810000D01*
X145965925Y-74752993D01*
X146000000Y-74625826D01*
X146000000Y-74494174D01*
X145965925Y-74367007D01*
X145933012Y-74310000D01*
X146830636Y-74310000D01*
X146830635Y-74309999D01*
X146773432Y-74096513D01*
X146773429Y-74096507D01*
X146673600Y-73882422D01*
X146673599Y-73882420D01*
X146538113Y-73688926D01*
X146538108Y-73688920D01*
X146371078Y-73521890D01*
X146185405Y-73391879D01*
X146141780Y-73337302D01*
X146134588Y-73267804D01*
X146166110Y-73205449D01*
X146185406Y-73188730D01*
X146371401Y-73058495D01*
X146538495Y-72891401D01*
X146674035Y-72697830D01*
X146773903Y-72483663D01*
X146835063Y-72255408D01*
X146855659Y-72020000D01*
X146835063Y-71784592D01*
X146773903Y-71556337D01*
X146674035Y-71342171D01*
X146627624Y-71275888D01*
X146538494Y-71148597D01*
X146371402Y-70981506D01*
X146371395Y-70981501D01*
X146177834Y-70845967D01*
X146177830Y-70845965D01*
X146169818Y-70842229D01*
X145963663Y-70746097D01*
X145963659Y-70746096D01*
X145963655Y-70746094D01*
X145735413Y-70684938D01*
X145735403Y-70684936D01*
X145500001Y-70664341D01*
X145499999Y-70664341D01*
X145264596Y-70684936D01*
X145264586Y-70684938D01*
X145036344Y-70746094D01*
X145036335Y-70746098D01*
X144822171Y-70845964D01*
X144822169Y-70845965D01*
X144628600Y-70981503D01*
X144506673Y-71103430D01*
X144445350Y-71136914D01*
X144375658Y-71131930D01*
X144319725Y-71090058D01*
X144302810Y-71059081D01*
X144253797Y-70927671D01*
X144253793Y-70927664D01*
X144167547Y-70812455D01*
X144167544Y-70812452D01*
X144052335Y-70726206D01*
X144052328Y-70726202D01*
X143917482Y-70675908D01*
X143917483Y-70675908D01*
X143857883Y-70669501D01*
X143857881Y-70669500D01*
X143857873Y-70669500D01*
X143857864Y-70669500D01*
X142062129Y-70669500D01*
X142062123Y-70669501D01*
X142002516Y-70675908D01*
X141867671Y-70726202D01*
X141867664Y-70726206D01*
X141752455Y-70812452D01*
X141752452Y-70812455D01*
X141666206Y-70927664D01*
X141666204Y-70927668D01*
X141666204Y-70927669D01*
X141662039Y-70938834D01*
X141620171Y-70994766D01*
X141554707Y-71019184D01*
X141545859Y-71019500D01*
X140881455Y-71019500D01*
X140784812Y-71038724D01*
X140688170Y-71057947D01*
X140688161Y-71057949D01*
X140673834Y-71063885D01*
X140673829Y-71063887D01*
X140506092Y-71133364D01*
X140506079Y-71133371D01*
X140342219Y-71242859D01*
X140272540Y-71312538D01*
X140202861Y-71382218D01*
X140202858Y-71382221D01*
X138362221Y-73222858D01*
X138362218Y-73222861D01*
X138317275Y-73267804D01*
X138222859Y-73362219D01*
X138113371Y-73526079D01*
X138113364Y-73526092D01*
X138037950Y-73708160D01*
X138037947Y-73708170D01*
X137999500Y-73901456D01*
X137999500Y-83534218D01*
X137979815Y-83601257D01*
X137963181Y-83621899D01*
X136201899Y-85383181D01*
X136140576Y-85416666D01*
X136114218Y-85419500D01*
X135877588Y-85419500D01*
X135810549Y-85399815D01*
X135806465Y-85397075D01*
X135786622Y-85383181D01*
X135652734Y-85289432D01*
X135636054Y-85281654D01*
X135446497Y-85193261D01*
X135446488Y-85193258D01*
X135226697Y-85134366D01*
X135226693Y-85134365D01*
X135226692Y-85134365D01*
X135226691Y-85134364D01*
X135226686Y-85134364D01*
X135000002Y-85114532D01*
X134999998Y-85114532D01*
X134773313Y-85134364D01*
X134773302Y-85134366D01*
X134553511Y-85193258D01*
X134553502Y-85193261D01*
X134347267Y-85289431D01*
X134347265Y-85289432D01*
X134160858Y-85419954D01*
X133999954Y-85580858D01*
X133869432Y-85767265D01*
X133869431Y-85767267D01*
X133773261Y-85973502D01*
X133773258Y-85973511D01*
X133714366Y-86193302D01*
X133714364Y-86193313D01*
X133694532Y-86419998D01*
X133694532Y-86420001D01*
X133714364Y-86646686D01*
X133714366Y-86646697D01*
X133773258Y-86866488D01*
X133773261Y-86866497D01*
X133869431Y-87072732D01*
X133869432Y-87072734D01*
X133999954Y-87259141D01*
X134160858Y-87420045D01*
X134180497Y-87433796D01*
X134347266Y-87550568D01*
X134553504Y-87646739D01*
X134773308Y-87705635D01*
X134935230Y-87719801D01*
X134999998Y-87725468D01*
X135000000Y-87725468D01*
X135000002Y-87725468D01*
X135056673Y-87720509D01*
X135226692Y-87705635D01*
X135446496Y-87646739D01*
X135652734Y-87550568D01*
X135806465Y-87442924D01*
X135872671Y-87420598D01*
X135877588Y-87420500D01*
X136678542Y-87420500D01*
X136710438Y-87414155D01*
X136775188Y-87401275D01*
X136871836Y-87382051D01*
X136955138Y-87347546D01*
X137053914Y-87306632D01*
X137217782Y-87197139D01*
X137357139Y-87057782D01*
X137357140Y-87057780D01*
X137364206Y-87050714D01*
X137364209Y-87050710D01*
X139637778Y-84777141D01*
X139637782Y-84777139D01*
X139777139Y-84637782D01*
X139886632Y-84473914D01*
X139962051Y-84291835D01*
X139975094Y-84226265D01*
X140000500Y-84098543D01*
X140000500Y-74465782D01*
X140020185Y-74398743D01*
X140036819Y-74378101D01*
X141358101Y-73056819D01*
X141419424Y-73023334D01*
X141445782Y-73020500D01*
X141545859Y-73020500D01*
X141612898Y-73040185D01*
X141658653Y-73092989D01*
X141662030Y-73101140D01*
X141666204Y-73112331D01*
X141666205Y-73112332D01*
X141666206Y-73112335D01*
X141752452Y-73227544D01*
X141752455Y-73227547D01*
X141867664Y-73313793D01*
X141867671Y-73313797D01*
X141867674Y-73313798D01*
X141999598Y-73363002D01*
X142055531Y-73404873D01*
X142079949Y-73470337D01*
X142065098Y-73538610D01*
X142043947Y-73566865D01*
X141921886Y-73688926D01*
X141786400Y-73882420D01*
X141786399Y-73882422D01*
X141686570Y-74096507D01*
X141686567Y-74096513D01*
X141629364Y-74309999D01*
X141629364Y-74310000D01*
X142526988Y-74310000D01*
X142494075Y-74367007D01*
X142460000Y-74494174D01*
X142460000Y-74625826D01*
X142494075Y-74752993D01*
X142526988Y-74810000D01*
X141629364Y-74810000D01*
X141686567Y-75023486D01*
X141686570Y-75023492D01*
X141786399Y-75237578D01*
X141921894Y-75431082D01*
X142088917Y-75598105D01*
X142274595Y-75728119D01*
X142318219Y-75782696D01*
X142325412Y-75852195D01*
X142293890Y-75914549D01*
X142274595Y-75931269D01*
X142088594Y-76061508D01*
X141921505Y-76228597D01*
X141785965Y-76422169D01*
X141785964Y-76422171D01*
X141686098Y-76636335D01*
X141686094Y-76636344D01*
X141624938Y-76864586D01*
X141624936Y-76864596D01*
X141604341Y-77099999D01*
X141604341Y-77100000D01*
X141624936Y-77335403D01*
X141624938Y-77335413D01*
X141686094Y-77563655D01*
X141686096Y-77563659D01*
X141686097Y-77563663D01*
X141690000Y-77572032D01*
X141785965Y-77777830D01*
X141785967Y-77777834D01*
X141894281Y-77932521D01*
X141921501Y-77971396D01*
X141921506Y-77971402D01*
X142088597Y-78138493D01*
X142088603Y-78138498D01*
X142274158Y-78268425D01*
X142317783Y-78323002D01*
X142324977Y-78392500D01*
X142293454Y-78454855D01*
X142274158Y-78471575D01*
X142088597Y-78601505D01*
X141921505Y-78768597D01*
X141785965Y-78962169D01*
X141785964Y-78962171D01*
X141686098Y-79176335D01*
X141686094Y-79176344D01*
X141624938Y-79404586D01*
X141624936Y-79404596D01*
X141604341Y-79639999D01*
X141604341Y-79640000D01*
X141624936Y-79875403D01*
X141624938Y-79875413D01*
X141686094Y-80103655D01*
X141686096Y-80103659D01*
X141686097Y-80103663D01*
X141690000Y-80112032D01*
X141785965Y-80317830D01*
X141785967Y-80317834D01*
X141894281Y-80472521D01*
X141921501Y-80511396D01*
X141921506Y-80511402D01*
X142088597Y-80678493D01*
X142088603Y-80678498D01*
X142274158Y-80808425D01*
X142317783Y-80863002D01*
X142324977Y-80932500D01*
X142293454Y-80994855D01*
X142274158Y-81011575D01*
X142088597Y-81141505D01*
X141921505Y-81308597D01*
X141785965Y-81502169D01*
X141785964Y-81502171D01*
X141686098Y-81716335D01*
X141686094Y-81716344D01*
X141624938Y-81944586D01*
X141624936Y-81944596D01*
X141604341Y-82179999D01*
X141604341Y-82180000D01*
X141624936Y-82415403D01*
X141624938Y-82415413D01*
X141686094Y-82643655D01*
X141686096Y-82643659D01*
X141686097Y-82643663D01*
X141735683Y-82750000D01*
X141785965Y-82857830D01*
X141785967Y-82857834D01*
X141885512Y-82999998D01*
X141921501Y-83051396D01*
X141921506Y-83051402D01*
X142088597Y-83218493D01*
X142088603Y-83218498D01*
X142274158Y-83348425D01*
X142317783Y-83403002D01*
X142324977Y-83472500D01*
X142293454Y-83534855D01*
X142274158Y-83551575D01*
X142088597Y-83681505D01*
X141921505Y-83848597D01*
X141785965Y-84042169D01*
X141785964Y-84042171D01*
X141686098Y-84256335D01*
X141686094Y-84256344D01*
X141624938Y-84484586D01*
X141624936Y-84484596D01*
X141604341Y-84719999D01*
X141604341Y-84720000D01*
X141624936Y-84955403D01*
X141624938Y-84955413D01*
X141686094Y-85183655D01*
X141686096Y-85183659D01*
X141686097Y-85183663D01*
X141779134Y-85383181D01*
X141785965Y-85397830D01*
X141785967Y-85397834D01*
X141859224Y-85502455D01*
X141921501Y-85591396D01*
X141921506Y-85591402D01*
X142088597Y-85758493D01*
X142088603Y-85758498D01*
X142274158Y-85888425D01*
X142317783Y-85943002D01*
X142324977Y-86012500D01*
X142293454Y-86074855D01*
X142274158Y-86091575D01*
X142088597Y-86221505D01*
X141921505Y-86388597D01*
X141785965Y-86582169D01*
X141785964Y-86582171D01*
X141686098Y-86796335D01*
X141686094Y-86796344D01*
X141624938Y-87024586D01*
X141624936Y-87024596D01*
X141604341Y-87259999D01*
X141604341Y-87260000D01*
X141624936Y-87495403D01*
X141624938Y-87495413D01*
X141686094Y-87723655D01*
X141686096Y-87723659D01*
X141686097Y-87723663D01*
X141780703Y-87926546D01*
X141785965Y-87937830D01*
X141785967Y-87937834D01*
X141881858Y-88074779D01*
X141921501Y-88131396D01*
X141921506Y-88131402D01*
X142088597Y-88298493D01*
X142088603Y-88298498D01*
X142274158Y-88428425D01*
X142317783Y-88483002D01*
X142324977Y-88552500D01*
X142293454Y-88614855D01*
X142274158Y-88631575D01*
X142088597Y-88761505D01*
X141921505Y-88928597D01*
X141785965Y-89122169D01*
X141785964Y-89122171D01*
X141686098Y-89336335D01*
X141686094Y-89336344D01*
X141624938Y-89564586D01*
X141624936Y-89564596D01*
X141604341Y-89799999D01*
X141604341Y-89800000D01*
X141624936Y-90035403D01*
X141624938Y-90035413D01*
X141686094Y-90263655D01*
X141686096Y-90263659D01*
X141686097Y-90263663D01*
X141780703Y-90466546D01*
X141785965Y-90477830D01*
X141785967Y-90477834D01*
X141881858Y-90614779D01*
X141921501Y-90671396D01*
X141921506Y-90671402D01*
X142088597Y-90838493D01*
X142088603Y-90838498D01*
X142274158Y-90968425D01*
X142317783Y-91023002D01*
X142324977Y-91092500D01*
X142293454Y-91154855D01*
X142274158Y-91171575D01*
X142088597Y-91301505D01*
X141921505Y-91468597D01*
X141785965Y-91662169D01*
X141785964Y-91662171D01*
X141686098Y-91876335D01*
X141686094Y-91876344D01*
X141624938Y-92104586D01*
X141624936Y-92104596D01*
X141604341Y-92339999D01*
X141604341Y-92340000D01*
X141624936Y-92575403D01*
X141624938Y-92575413D01*
X141686094Y-92803655D01*
X141686096Y-92803659D01*
X141686097Y-92803663D01*
X141775619Y-92995643D01*
X141785965Y-93017830D01*
X141785967Y-93017834D01*
X141881858Y-93154779D01*
X141921501Y-93211396D01*
X141921506Y-93211402D01*
X142088597Y-93378493D01*
X142088603Y-93378498D01*
X142274158Y-93508425D01*
X142317783Y-93563002D01*
X142324977Y-93632500D01*
X142293454Y-93694855D01*
X142274158Y-93711575D01*
X142088597Y-93841505D01*
X141921505Y-94008597D01*
X141785965Y-94202169D01*
X141785964Y-94202171D01*
X141686098Y-94416335D01*
X141686094Y-94416344D01*
X141624938Y-94644586D01*
X141624936Y-94644596D01*
X141604341Y-94879999D01*
X141604341Y-94880000D01*
X141624936Y-95115403D01*
X141624938Y-95115413D01*
X141686094Y-95343655D01*
X141686096Y-95343659D01*
X141686097Y-95343663D01*
X141780703Y-95546546D01*
X141785965Y-95557830D01*
X141785967Y-95557834D01*
X141881858Y-95694779D01*
X141921501Y-95751396D01*
X141921506Y-95751402D01*
X142088597Y-95918493D01*
X142088603Y-95918498D01*
X142274594Y-96048730D01*
X142318219Y-96103307D01*
X142325413Y-96172805D01*
X142293890Y-96235160D01*
X142274595Y-96251880D01*
X142088922Y-96381890D01*
X142088920Y-96381891D01*
X141921891Y-96548920D01*
X141921886Y-96548926D01*
X141786400Y-96742420D01*
X141786399Y-96742422D01*
X141686570Y-96956507D01*
X141686567Y-96956513D01*
X141629364Y-97169999D01*
X141629364Y-97170000D01*
X142526988Y-97170000D01*
X142494075Y-97227007D01*
X142460000Y-97354174D01*
X142460000Y-97485826D01*
X142494075Y-97612993D01*
X142526988Y-97670000D01*
X141629364Y-97670000D01*
X141686567Y-97883486D01*
X141686570Y-97883492D01*
X141786399Y-98097578D01*
X141921894Y-98291082D01*
X142088917Y-98458105D01*
X142274595Y-98588119D01*
X142318219Y-98642696D01*
X142325412Y-98712195D01*
X142293890Y-98774549D01*
X142274595Y-98791269D01*
X142088594Y-98921508D01*
X141921505Y-99088597D01*
X141785965Y-99282169D01*
X141785964Y-99282171D01*
X141686098Y-99496335D01*
X141686094Y-99496344D01*
X141624938Y-99724586D01*
X141624936Y-99724596D01*
X141604341Y-99959999D01*
X141604341Y-99960000D01*
X141624936Y-100195403D01*
X141624938Y-100195413D01*
X141686094Y-100423655D01*
X141686096Y-100423659D01*
X141686097Y-100423663D01*
X141775510Y-100615409D01*
X141785965Y-100637830D01*
X141785967Y-100637834D01*
X141812908Y-100676309D01*
X141921501Y-100831396D01*
X141921506Y-100831402D01*
X142088597Y-100998493D01*
X142088603Y-100998498D01*
X142274158Y-101128425D01*
X142317783Y-101183002D01*
X142324977Y-101252500D01*
X142293454Y-101314855D01*
X142274158Y-101331575D01*
X142088597Y-101461505D01*
X141921505Y-101628597D01*
X141785965Y-101822169D01*
X141785964Y-101822171D01*
X141686098Y-102036335D01*
X141686094Y-102036344D01*
X141624938Y-102264586D01*
X141624936Y-102264596D01*
X141604341Y-102499999D01*
X141604341Y-102500000D01*
X141624936Y-102735403D01*
X141624938Y-102735413D01*
X141686094Y-102963655D01*
X141686096Y-102963659D01*
X141686097Y-102963663D01*
X141690000Y-102972032D01*
X141785965Y-103177830D01*
X141785967Y-103177834D01*
X141894281Y-103332521D01*
X141921501Y-103371396D01*
X141921506Y-103371402D01*
X142088597Y-103538493D01*
X142088603Y-103538498D01*
X142274158Y-103668425D01*
X142317783Y-103723002D01*
X142324977Y-103792500D01*
X142293454Y-103854855D01*
X142274158Y-103871575D01*
X142088597Y-104001505D01*
X141921505Y-104168597D01*
X141785965Y-104362169D01*
X141785964Y-104362171D01*
X141686098Y-104576335D01*
X141686094Y-104576344D01*
X141624938Y-104804586D01*
X141624936Y-104804596D01*
X141604341Y-105039999D01*
X141604341Y-105040000D01*
X141624936Y-105275403D01*
X141624938Y-105275413D01*
X141686094Y-105503655D01*
X141686096Y-105503659D01*
X141686097Y-105503663D01*
X141690000Y-105512032D01*
X141785965Y-105717830D01*
X141785967Y-105717834D01*
X141894281Y-105872521D01*
X141921501Y-105911396D01*
X141921506Y-105911402D01*
X142088597Y-106078493D01*
X142088603Y-106078498D01*
X142274158Y-106208425D01*
X142317783Y-106263002D01*
X142324977Y-106332500D01*
X142293454Y-106394855D01*
X142274158Y-106411575D01*
X142088597Y-106541505D01*
X142086922Y-106543181D01*
X142086000Y-106543684D01*
X142084449Y-106544986D01*
X142084187Y-106544674D01*
X142025599Y-106576666D01*
X141999241Y-106579500D01*
X122045783Y-106579500D01*
X121978744Y-106559815D01*
X121958102Y-106543181D01*
X119036819Y-103621898D01*
X119003334Y-103560575D01*
X119000500Y-103534217D01*
X119000500Y-101665000D01*
X121459847Y-101665000D01*
X121480409Y-101873774D01*
X121541309Y-102074534D01*
X121619892Y-102221552D01*
X121619893Y-102221552D01*
X122165000Y-101676446D01*
X122165000Y-101713053D01*
X122189874Y-101805885D01*
X122237927Y-101889116D01*
X122305884Y-101957073D01*
X122389115Y-102005126D01*
X122481947Y-102030000D01*
X122518553Y-102030000D01*
X121973445Y-102575106D01*
X122120465Y-102653690D01*
X122321227Y-102714590D01*
X122321223Y-102714590D01*
X122530000Y-102735152D01*
X122738774Y-102714590D01*
X122939532Y-102653690D01*
X123086553Y-102575105D01*
X122541448Y-102030000D01*
X122578053Y-102030000D01*
X122670885Y-102005126D01*
X122754116Y-101957073D01*
X122822073Y-101889116D01*
X122870126Y-101805885D01*
X122895000Y-101713053D01*
X122895000Y-101676447D01*
X123440105Y-102221552D01*
X123518690Y-102074532D01*
X123579590Y-101873774D01*
X123600152Y-101665000D01*
X129399345Y-101665000D01*
X129419917Y-101873876D01*
X129480844Y-102074723D01*
X129579779Y-102259818D01*
X129579783Y-102259825D01*
X129712932Y-102422067D01*
X129875174Y-102555216D01*
X129875181Y-102555220D01*
X130059406Y-102653690D01*
X130060278Y-102654156D01*
X130261126Y-102715083D01*
X130470000Y-102735655D01*
X130678874Y-102715083D01*
X130879722Y-102654156D01*
X131064824Y-102555217D01*
X131227067Y-102422067D01*
X131360217Y-102259824D01*
X131459156Y-102074722D01*
X131520083Y-101873874D01*
X131540655Y-101665000D01*
X131520083Y-101456126D01*
X131459156Y-101255278D01*
X131400289Y-101145145D01*
X131360220Y-101070181D01*
X131360216Y-101070174D01*
X131227067Y-100907932D01*
X131064825Y-100774783D01*
X131064818Y-100774779D01*
X130879723Y-100675844D01*
X130678876Y-100614917D01*
X130470000Y-100594345D01*
X130261123Y-100614917D01*
X130060276Y-100675844D01*
X129875181Y-100774779D01*
X129875174Y-100774783D01*
X129712932Y-100907932D01*
X129579783Y-101070174D01*
X129579779Y-101070181D01*
X129480844Y-101255276D01*
X129419917Y-101456123D01*
X129399345Y-101665000D01*
X123600152Y-101665000D01*
X123579590Y-101456225D01*
X123518690Y-101255465D01*
X123440106Y-101108445D01*
X122895000Y-101653551D01*
X122895000Y-101616947D01*
X122870126Y-101524115D01*
X122822073Y-101440884D01*
X122754116Y-101372927D01*
X122670885Y-101324874D01*
X122578053Y-101300000D01*
X122541448Y-101300000D01*
X123086552Y-100754893D01*
X123086552Y-100754892D01*
X122939534Y-100676309D01*
X122738772Y-100615409D01*
X122738776Y-100615409D01*
X122530000Y-100594847D01*
X122321225Y-100615409D01*
X122120471Y-100676307D01*
X121973446Y-100754893D01*
X122518553Y-101300000D01*
X122481947Y-101300000D01*
X122389115Y-101324874D01*
X122305884Y-101372927D01*
X122237927Y-101440884D01*
X122189874Y-101524115D01*
X122165000Y-101616947D01*
X122165000Y-101653552D01*
X121619893Y-101108446D01*
X121541307Y-101255471D01*
X121480409Y-101456225D01*
X121459847Y-101665000D01*
X119000500Y-101665000D01*
X119000500Y-99125000D01*
X121459345Y-99125000D01*
X121479917Y-99333876D01*
X121540844Y-99534723D01*
X121639779Y-99719818D01*
X121639783Y-99719825D01*
X121772932Y-99882067D01*
X121935174Y-100015216D01*
X121935181Y-100015220D01*
X122069568Y-100087051D01*
X122120278Y-100114156D01*
X122321126Y-100175083D01*
X122530000Y-100195655D01*
X122738874Y-100175083D01*
X122939722Y-100114156D01*
X123124824Y-100015217D01*
X123287067Y-99882067D01*
X123420217Y-99719824D01*
X123519156Y-99534722D01*
X123580083Y-99333874D01*
X123600655Y-99125000D01*
X123580083Y-98916126D01*
X123519156Y-98715278D01*
X123517508Y-98712195D01*
X123420220Y-98530181D01*
X123420216Y-98530174D01*
X123287067Y-98367932D01*
X123124825Y-98234783D01*
X123124818Y-98234779D01*
X122939723Y-98135844D01*
X122738876Y-98074917D01*
X122530000Y-98054345D01*
X122321123Y-98074917D01*
X122120276Y-98135844D01*
X121935181Y-98234779D01*
X121935174Y-98234783D01*
X121772932Y-98367932D01*
X121639783Y-98530174D01*
X121639779Y-98530181D01*
X121540844Y-98715276D01*
X121479917Y-98916123D01*
X121459345Y-99125000D01*
X119000500Y-99125000D01*
X119000500Y-96585000D01*
X121459345Y-96585000D01*
X121479917Y-96793876D01*
X121540844Y-96994723D01*
X121639779Y-97179818D01*
X121639783Y-97179825D01*
X121772932Y-97342067D01*
X121935174Y-97475216D01*
X121935181Y-97475220D01*
X122120276Y-97574155D01*
X122120278Y-97574156D01*
X122321126Y-97635083D01*
X122530000Y-97655655D01*
X122738874Y-97635083D01*
X122837434Y-97605185D01*
X122884727Y-97590839D01*
X122920722Y-97585500D01*
X124901459Y-97585500D01*
X125119218Y-97585500D01*
X125186257Y-97605185D01*
X125206899Y-97621819D01*
X125379735Y-97794655D01*
X125379749Y-97794670D01*
X125382860Y-97797781D01*
X125382861Y-97797782D01*
X125522218Y-97937139D01*
X125522219Y-97937139D01*
X125529286Y-97944206D01*
X125529285Y-97944206D01*
X125529289Y-97944209D01*
X127487215Y-99902137D01*
X127487219Y-99902140D01*
X127651079Y-100011628D01*
X127651085Y-100011631D01*
X127651086Y-100011632D01*
X127833165Y-100087052D01*
X127994389Y-100119121D01*
X128026457Y-100125499D01*
X128026458Y-100125500D01*
X128026459Y-100125500D01*
X128026460Y-100125500D01*
X128223541Y-100125500D01*
X130079278Y-100125500D01*
X130115273Y-100130839D01*
X130194531Y-100154881D01*
X130261126Y-100175083D01*
X130470000Y-100195655D01*
X130678874Y-100175083D01*
X130879722Y-100114156D01*
X131064824Y-100015217D01*
X131227067Y-99882067D01*
X131360217Y-99719824D01*
X131459156Y-99534722D01*
X131520083Y-99333874D01*
X131540655Y-99125000D01*
X131520083Y-98916126D01*
X131459156Y-98715278D01*
X131457508Y-98712195D01*
X131360220Y-98530181D01*
X131360216Y-98530174D01*
X131227067Y-98367932D01*
X131064825Y-98234783D01*
X131064818Y-98234779D01*
X130879723Y-98135844D01*
X130678876Y-98074917D01*
X130470000Y-98054345D01*
X130261127Y-98074916D01*
X130115273Y-98119161D01*
X130079278Y-98124500D01*
X128590783Y-98124500D01*
X128523744Y-98104815D01*
X128503102Y-98088181D01*
X127196819Y-96781898D01*
X127163334Y-96720575D01*
X127160500Y-96694217D01*
X127160500Y-96585000D01*
X129399345Y-96585000D01*
X129419917Y-96793876D01*
X129480844Y-96994723D01*
X129579779Y-97179818D01*
X129579783Y-97179825D01*
X129712932Y-97342067D01*
X129875174Y-97475216D01*
X129875181Y-97475220D01*
X130060276Y-97574155D01*
X130060278Y-97574156D01*
X130261126Y-97635083D01*
X130470000Y-97655655D01*
X130678874Y-97635083D01*
X130879722Y-97574156D01*
X131064824Y-97475217D01*
X131227067Y-97342067D01*
X131360217Y-97179824D01*
X131459156Y-96994722D01*
X131520083Y-96793874D01*
X131540655Y-96585000D01*
X131540162Y-96579998D01*
X133694532Y-96579998D01*
X133694532Y-96580001D01*
X133714364Y-96806686D01*
X133714366Y-96806697D01*
X133773258Y-97026488D01*
X133773261Y-97026497D01*
X133869431Y-97232732D01*
X133869432Y-97232734D01*
X133999954Y-97419141D01*
X134160858Y-97580045D01*
X134160861Y-97580047D01*
X134347266Y-97710568D01*
X134553504Y-97806739D01*
X134773308Y-97865635D01*
X134935230Y-97879801D01*
X134999998Y-97885468D01*
X135000000Y-97885468D01*
X135000002Y-97885468D01*
X135056673Y-97880509D01*
X135226692Y-97865635D01*
X135446496Y-97806739D01*
X135652734Y-97710568D01*
X135839139Y-97580047D01*
X136000047Y-97419139D01*
X136130568Y-97232734D01*
X136226739Y-97026496D01*
X136285635Y-96806692D01*
X136305468Y-96580000D01*
X136285635Y-96353308D01*
X136226739Y-96133504D01*
X136130568Y-95927266D01*
X136000047Y-95740861D01*
X136000045Y-95740858D01*
X135839141Y-95579954D01*
X135652734Y-95449432D01*
X135652732Y-95449431D01*
X135446497Y-95353261D01*
X135446488Y-95353258D01*
X135226697Y-95294366D01*
X135226693Y-95294365D01*
X135226692Y-95294365D01*
X135226691Y-95294364D01*
X135226686Y-95294364D01*
X135000002Y-95274532D01*
X134999998Y-95274532D01*
X134773313Y-95294364D01*
X134773302Y-95294366D01*
X134553511Y-95353258D01*
X134553502Y-95353261D01*
X134347267Y-95449431D01*
X134347265Y-95449432D01*
X134160858Y-95579954D01*
X133999954Y-95740858D01*
X133869432Y-95927265D01*
X133869431Y-95927267D01*
X133773261Y-96133502D01*
X133773258Y-96133511D01*
X133714366Y-96353302D01*
X133714364Y-96353313D01*
X133694532Y-96579998D01*
X131540162Y-96579998D01*
X131520083Y-96376126D01*
X131459156Y-96175278D01*
X131435258Y-96130568D01*
X131360220Y-95990181D01*
X131360216Y-95990174D01*
X131227067Y-95827932D01*
X131064825Y-95694783D01*
X131064818Y-95694779D01*
X130879723Y-95595844D01*
X130678876Y-95534917D01*
X130470000Y-95514345D01*
X130261123Y-95534917D01*
X130060276Y-95595844D01*
X129875181Y-95694779D01*
X129875174Y-95694783D01*
X129712932Y-95827932D01*
X129579783Y-95990174D01*
X129579779Y-95990181D01*
X129480844Y-96175276D01*
X129419917Y-96376123D01*
X129399345Y-96585000D01*
X127160500Y-96585000D01*
X127160500Y-94045000D01*
X129399345Y-94045000D01*
X129419917Y-94253876D01*
X129480844Y-94454723D01*
X129579779Y-94639818D01*
X129579783Y-94639825D01*
X129712932Y-94802067D01*
X129875174Y-94935216D01*
X129875181Y-94935220D01*
X129996378Y-95000001D01*
X130060278Y-95034156D01*
X130261126Y-95095083D01*
X130470000Y-95115655D01*
X130678874Y-95095083D01*
X130879722Y-95034156D01*
X131064824Y-94935217D01*
X131227067Y-94802067D01*
X131360217Y-94639824D01*
X131459156Y-94454722D01*
X131520083Y-94253874D01*
X131540655Y-94045000D01*
X131520083Y-93836126D01*
X131459156Y-93635278D01*
X131400289Y-93525145D01*
X131360220Y-93450181D01*
X131360216Y-93450174D01*
X131227067Y-93287932D01*
X131064825Y-93154783D01*
X131064818Y-93154779D01*
X130879723Y-93055844D01*
X130678876Y-92994917D01*
X130470000Y-92974345D01*
X130261123Y-92994917D01*
X130060276Y-93055844D01*
X129875181Y-93154779D01*
X129875174Y-93154783D01*
X129712932Y-93287932D01*
X129579783Y-93450174D01*
X129579779Y-93450181D01*
X129480844Y-93635276D01*
X129419917Y-93836123D01*
X129399345Y-94045000D01*
X127160500Y-94045000D01*
X127160500Y-92629500D01*
X127180185Y-92562461D01*
X127232989Y-92516706D01*
X127284500Y-92505500D01*
X130079278Y-92505500D01*
X130115273Y-92510839D01*
X130194531Y-92534881D01*
X130261126Y-92555083D01*
X130470000Y-92575655D01*
X130678874Y-92555083D01*
X130879722Y-92494156D01*
X131064824Y-92395217D01*
X131227067Y-92262067D01*
X131360217Y-92099824D01*
X131459156Y-91914722D01*
X131520083Y-91713874D01*
X131540655Y-91505000D01*
X131520083Y-91296126D01*
X131459156Y-91095278D01*
X131451460Y-91080880D01*
X131360220Y-90910181D01*
X131360216Y-90910174D01*
X131227067Y-90747932D01*
X131064825Y-90614783D01*
X131064818Y-90614779D01*
X130879723Y-90515844D01*
X130678876Y-90454917D01*
X130470000Y-90434345D01*
X130261127Y-90454916D01*
X130115273Y-90499161D01*
X130079278Y-90504500D01*
X127284500Y-90504500D01*
X127217461Y-90484815D01*
X127171706Y-90432011D01*
X127160500Y-90380500D01*
X127160500Y-88965000D01*
X129399345Y-88965000D01*
X129419917Y-89173876D01*
X129480844Y-89374723D01*
X129579779Y-89559818D01*
X129579783Y-89559825D01*
X129712932Y-89722067D01*
X129875174Y-89855216D01*
X129875181Y-89855220D01*
X130060276Y-89954155D01*
X130060278Y-89954156D01*
X130261126Y-90015083D01*
X130470000Y-90035655D01*
X130678874Y-90015083D01*
X130879722Y-89954156D01*
X131064824Y-89855217D01*
X131227067Y-89722067D01*
X131360217Y-89559824D01*
X131459156Y-89374722D01*
X131520083Y-89173874D01*
X131540655Y-88965000D01*
X131520083Y-88756126D01*
X131459156Y-88555278D01*
X131400289Y-88445145D01*
X131360220Y-88370181D01*
X131360216Y-88370174D01*
X131227067Y-88207932D01*
X131064825Y-88074783D01*
X131064818Y-88074779D01*
X130879723Y-87975844D01*
X130678876Y-87914917D01*
X130470000Y-87894345D01*
X130261123Y-87914917D01*
X130060276Y-87975844D01*
X129875181Y-88074779D01*
X129875174Y-88074783D01*
X129712932Y-88207932D01*
X129579783Y-88370174D01*
X129579779Y-88370181D01*
X129480844Y-88555276D01*
X129419917Y-88756123D01*
X129399345Y-88965000D01*
X127160500Y-88965000D01*
X127160500Y-86425000D01*
X129399345Y-86425000D01*
X129419917Y-86633876D01*
X129480844Y-86834723D01*
X129579779Y-87019818D01*
X129579783Y-87019825D01*
X129712932Y-87182067D01*
X129875174Y-87315216D01*
X129875181Y-87315220D01*
X130036179Y-87401275D01*
X130060278Y-87414156D01*
X130261126Y-87475083D01*
X130470000Y-87495655D01*
X130678874Y-87475083D01*
X130879722Y-87414156D01*
X131064824Y-87315217D01*
X131227067Y-87182067D01*
X131360217Y-87019824D01*
X131459156Y-86834722D01*
X131520083Y-86633874D01*
X131540655Y-86425000D01*
X131520083Y-86216126D01*
X131459156Y-86015278D01*
X131420524Y-85943002D01*
X131360220Y-85830181D01*
X131360216Y-85830174D01*
X131227067Y-85667932D01*
X131064825Y-85534783D01*
X131064818Y-85534779D01*
X130879723Y-85435844D01*
X130678876Y-85374917D01*
X130470000Y-85354345D01*
X130261123Y-85374917D01*
X130060276Y-85435844D01*
X129875181Y-85534779D01*
X129875174Y-85534783D01*
X129712932Y-85667932D01*
X129579783Y-85830174D01*
X129579779Y-85830181D01*
X129480844Y-86015276D01*
X129419917Y-86216123D01*
X129399345Y-86425000D01*
X127160500Y-86425000D01*
X127160500Y-82749998D01*
X133694532Y-82749998D01*
X133694532Y-82750000D01*
X133714364Y-82976686D01*
X133714366Y-82976697D01*
X133773258Y-83196488D01*
X133773261Y-83196497D01*
X133869431Y-83402732D01*
X133869432Y-83402734D01*
X133999954Y-83589141D01*
X134160858Y-83750045D01*
X134160861Y-83750047D01*
X134347266Y-83880568D01*
X134553504Y-83976739D01*
X134773308Y-84035635D01*
X134935230Y-84049801D01*
X134999998Y-84055468D01*
X135000000Y-84055468D01*
X135000002Y-84055468D01*
X135056673Y-84050509D01*
X135226692Y-84035635D01*
X135446496Y-83976739D01*
X135652734Y-83880568D01*
X135839139Y-83750047D01*
X136000047Y-83589139D01*
X136130568Y-83402734D01*
X136226739Y-83196496D01*
X136285635Y-82976692D01*
X136305468Y-82750000D01*
X136285635Y-82523308D01*
X136226739Y-82303504D01*
X136130568Y-82097266D01*
X136023668Y-81944596D01*
X136000045Y-81910858D01*
X135839141Y-81749954D01*
X135652734Y-81619432D01*
X135652730Y-81619430D01*
X135637022Y-81612105D01*
X135584583Y-81565931D01*
X135565433Y-81498737D01*
X135585650Y-81431857D01*
X135637028Y-81387340D01*
X135652481Y-81380134D01*
X135725471Y-81329024D01*
X135046447Y-80650000D01*
X135052661Y-80650000D01*
X135154394Y-80622741D01*
X135245606Y-80570080D01*
X135320080Y-80495606D01*
X135372741Y-80404394D01*
X135400000Y-80302661D01*
X135400000Y-80296447D01*
X136079024Y-80975471D01*
X136130136Y-80902478D01*
X136226264Y-80696331D01*
X136226269Y-80696317D01*
X136285139Y-80476610D01*
X136285141Y-80476599D01*
X136304966Y-80250002D01*
X136304966Y-80249997D01*
X136285141Y-80023400D01*
X136285139Y-80023389D01*
X136226269Y-79803682D01*
X136226264Y-79803668D01*
X136130136Y-79597521D01*
X136130132Y-79597513D01*
X136079025Y-79524526D01*
X135400000Y-80203551D01*
X135400000Y-80197339D01*
X135372741Y-80095606D01*
X135320080Y-80004394D01*
X135245606Y-79929920D01*
X135154394Y-79877259D01*
X135052661Y-79850000D01*
X135046448Y-79850000D01*
X135725472Y-79170974D01*
X135652478Y-79119863D01*
X135446331Y-79023735D01*
X135446317Y-79023730D01*
X135226610Y-78964860D01*
X135226599Y-78964858D01*
X135000002Y-78945034D01*
X134999998Y-78945034D01*
X134773400Y-78964858D01*
X134773389Y-78964860D01*
X134553682Y-79023730D01*
X134553673Y-79023734D01*
X134347516Y-79119866D01*
X134347512Y-79119868D01*
X134274526Y-79170973D01*
X134274526Y-79170974D01*
X134953553Y-79850000D01*
X134947339Y-79850000D01*
X134845606Y-79877259D01*
X134754394Y-79929920D01*
X134679920Y-80004394D01*
X134627259Y-80095606D01*
X134600000Y-80197339D01*
X134600000Y-80203552D01*
X133920974Y-79524526D01*
X133920973Y-79524526D01*
X133869868Y-79597512D01*
X133869866Y-79597516D01*
X133773734Y-79803673D01*
X133773730Y-79803682D01*
X133714860Y-80023389D01*
X133714858Y-80023400D01*
X133695034Y-80249997D01*
X133695034Y-80250002D01*
X133714858Y-80476599D01*
X133714860Y-80476610D01*
X133773730Y-80696317D01*
X133773735Y-80696331D01*
X133869863Y-80902478D01*
X133920974Y-80975472D01*
X134600000Y-80296446D01*
X134600000Y-80302661D01*
X134627259Y-80404394D01*
X134679920Y-80495606D01*
X134754394Y-80570080D01*
X134845606Y-80622741D01*
X134947339Y-80650000D01*
X134953553Y-80650000D01*
X134274526Y-81329025D01*
X134347513Y-81380132D01*
X134347515Y-81380133D01*
X134362973Y-81387341D01*
X134415413Y-81433513D01*
X134434566Y-81500706D01*
X134414351Y-81567587D01*
X134362979Y-81612104D01*
X134347270Y-81619429D01*
X134347265Y-81619432D01*
X134160858Y-81749954D01*
X133999954Y-81910858D01*
X133869432Y-82097265D01*
X133869431Y-82097267D01*
X133773261Y-82303502D01*
X133773258Y-82303511D01*
X133714366Y-82523302D01*
X133714364Y-82523313D01*
X133694532Y-82749998D01*
X127160500Y-82749998D01*
X127160500Y-79422588D01*
X127180185Y-79355549D01*
X127182925Y-79351465D01*
X127290568Y-79197734D01*
X127386739Y-78991496D01*
X127445635Y-78771692D01*
X127465468Y-78545000D01*
X127445635Y-78318308D01*
X127386739Y-78098504D01*
X127290568Y-77892266D01*
X127160047Y-77705861D01*
X127160045Y-77705858D01*
X126999141Y-77544954D01*
X126812734Y-77414432D01*
X126812732Y-77414431D01*
X126606497Y-77318261D01*
X126606488Y-77318258D01*
X126386697Y-77259366D01*
X126386693Y-77259365D01*
X126386692Y-77259365D01*
X126386691Y-77259364D01*
X126386686Y-77259364D01*
X126160002Y-77239532D01*
X126159998Y-77239532D01*
X125933313Y-77259364D01*
X125933302Y-77259366D01*
X125713511Y-77318258D01*
X125713502Y-77318261D01*
X125507267Y-77414431D01*
X125507265Y-77414432D01*
X125320858Y-77544954D01*
X125159954Y-77705858D01*
X125029432Y-77892265D01*
X125029431Y-77892267D01*
X124933261Y-78098502D01*
X124933258Y-78098511D01*
X124874366Y-78318302D01*
X124874364Y-78318313D01*
X124854532Y-78544998D01*
X124854532Y-78545001D01*
X124874364Y-78771686D01*
X124874366Y-78771697D01*
X124933258Y-78991488D01*
X124933261Y-78991497D01*
X125029431Y-79197732D01*
X125029432Y-79197734D01*
X125137075Y-79351465D01*
X125159402Y-79417671D01*
X125159500Y-79422588D01*
X125159500Y-95460500D01*
X125139815Y-95527539D01*
X125087011Y-95573294D01*
X125035500Y-95584500D01*
X122920722Y-95584500D01*
X122884727Y-95579161D01*
X122738872Y-95534916D01*
X122530000Y-95514345D01*
X122321123Y-95534917D01*
X122120276Y-95595844D01*
X121935181Y-95694779D01*
X121935174Y-95694783D01*
X121772932Y-95827932D01*
X121639783Y-95990174D01*
X121639779Y-95990181D01*
X121540844Y-96175276D01*
X121479917Y-96376123D01*
X121459345Y-96585000D01*
X119000500Y-96585000D01*
X119000500Y-94465782D01*
X119020185Y-94398743D01*
X119036819Y-94378101D01*
X119369920Y-94045000D01*
X121459345Y-94045000D01*
X121479917Y-94253876D01*
X121540844Y-94454723D01*
X121639779Y-94639818D01*
X121639783Y-94639825D01*
X121772932Y-94802067D01*
X121935174Y-94935216D01*
X121935181Y-94935220D01*
X122056378Y-95000001D01*
X122120278Y-95034156D01*
X122321126Y-95095083D01*
X122530000Y-95115655D01*
X122738874Y-95095083D01*
X122939722Y-95034156D01*
X123124824Y-94935217D01*
X123287067Y-94802067D01*
X123420217Y-94639824D01*
X123519156Y-94454722D01*
X123580083Y-94253874D01*
X123600655Y-94045000D01*
X123580083Y-93836126D01*
X123519156Y-93635278D01*
X123460289Y-93525145D01*
X123420220Y-93450181D01*
X123420216Y-93450174D01*
X123287067Y-93287932D01*
X123124825Y-93154783D01*
X123124818Y-93154779D01*
X122939723Y-93055844D01*
X122738876Y-92994917D01*
X122530000Y-92974345D01*
X122321123Y-92994917D01*
X122120276Y-93055844D01*
X121935181Y-93154779D01*
X121935174Y-93154783D01*
X121772932Y-93287932D01*
X121639783Y-93450174D01*
X121639779Y-93450181D01*
X121540844Y-93635276D01*
X121479917Y-93836123D01*
X121459345Y-94045000D01*
X119369920Y-94045000D01*
X120873101Y-92541819D01*
X120934424Y-92508334D01*
X120960782Y-92505500D01*
X122139278Y-92505500D01*
X122175273Y-92510839D01*
X122254531Y-92534881D01*
X122321126Y-92555083D01*
X122530000Y-92575655D01*
X122738874Y-92555083D01*
X122939722Y-92494156D01*
X123124824Y-92395217D01*
X123287067Y-92262067D01*
X123420217Y-92099824D01*
X123519156Y-91914722D01*
X123580083Y-91713874D01*
X123600655Y-91505000D01*
X123580083Y-91296126D01*
X123519156Y-91095278D01*
X123511460Y-91080880D01*
X123420220Y-90910181D01*
X123420216Y-90910174D01*
X123287067Y-90747932D01*
X123124825Y-90614783D01*
X123124818Y-90614779D01*
X122939723Y-90515844D01*
X122738876Y-90454917D01*
X122530000Y-90434345D01*
X122321127Y-90454916D01*
X122175273Y-90499161D01*
X122139278Y-90504500D01*
X120396458Y-90504500D01*
X120367944Y-90510172D01*
X120339430Y-90515844D01*
X120339429Y-90515844D01*
X120203167Y-90542947D01*
X120203159Y-90542950D01*
X120149834Y-90565037D01*
X120149834Y-90565038D01*
X120104315Y-90583892D01*
X120021089Y-90618366D01*
X120021079Y-90618371D01*
X119857219Y-90727859D01*
X119787540Y-90797538D01*
X119717861Y-90867218D01*
X119717858Y-90867221D01*
X117362221Y-93222858D01*
X117362218Y-93222861D01*
X117297147Y-93287932D01*
X117222859Y-93362219D01*
X117113371Y-93526079D01*
X117113364Y-93526092D01*
X117037950Y-93708160D01*
X117037947Y-93708170D01*
X116999500Y-93901456D01*
X116999500Y-93901459D01*
X116999500Y-104098541D01*
X116999500Y-104098543D01*
X116999499Y-104098543D01*
X95000500Y-104098543D01*
X95000500Y-94999997D01*
X103615034Y-94999997D01*
X103615034Y-95000002D01*
X103634858Y-95226599D01*
X103634860Y-95226610D01*
X103693730Y-95446317D01*
X103693734Y-95446327D01*
X103789863Y-95652478D01*
X103840974Y-95725472D01*
X104520000Y-95046446D01*
X104520000Y-95052661D01*
X104547259Y-95154394D01*
X104599920Y-95245606D01*
X104674394Y-95320080D01*
X104765606Y-95372741D01*
X104867339Y-95400000D01*
X104873553Y-95400000D01*
X104194526Y-96079025D01*
X104267513Y-96130132D01*
X104267521Y-96130136D01*
X104473668Y-96226264D01*
X104473682Y-96226269D01*
X104693389Y-96285139D01*
X104693400Y-96285141D01*
X104919998Y-96304966D01*
X104920002Y-96304966D01*
X105146599Y-96285141D01*
X105146610Y-96285139D01*
X105366317Y-96226269D01*
X105366331Y-96226264D01*
X105572478Y-96130136D01*
X105645471Y-96079024D01*
X104966447Y-95400000D01*
X104972661Y-95400000D01*
X105074394Y-95372741D01*
X105165606Y-95320080D01*
X105240080Y-95245606D01*
X105292741Y-95154394D01*
X105320000Y-95052661D01*
X105320000Y-95046447D01*
X105999024Y-95725471D01*
X106050136Y-95652478D01*
X106146266Y-95446327D01*
X106146269Y-95446317D01*
X106205139Y-95226610D01*
X106205141Y-95226599D01*
X106224966Y-95000002D01*
X106224966Y-94999998D01*
X113774532Y-94999998D01*
X113774532Y-95000001D01*
X113794364Y-95226686D01*
X113794366Y-95226697D01*
X113853258Y-95446488D01*
X113853261Y-95446497D01*
X113949431Y-95652732D01*
X113949432Y-95652734D01*
X114079954Y-95839141D01*
X114240858Y-96000045D01*
X114240861Y-96000047D01*
X114427266Y-96130568D01*
X114633504Y-96226739D01*
X114853308Y-96285635D01*
X115015230Y-96299801D01*
X115079998Y-96305468D01*
X115080000Y-96305468D01*
X115080002Y-96305468D01*
X115136673Y-96300509D01*
X115306692Y-96285635D01*
X115526496Y-96226739D01*
X115732734Y-96130568D01*
X115919139Y-96000047D01*
X116080047Y-95839139D01*
X116210568Y-95652734D01*
X116306739Y-95446496D01*
X116365635Y-95226692D01*
X116385468Y-95000000D01*
X116365635Y-94773308D01*
X116306739Y-94553504D01*
X116210568Y-94347266D01*
X116080047Y-94160861D01*
X116080045Y-94160858D01*
X115919141Y-93999954D01*
X115732734Y-93869432D01*
X115732732Y-93869431D01*
X115526497Y-93773261D01*
X115526488Y-93773258D01*
X115306697Y-93714366D01*
X115306693Y-93714365D01*
X115306692Y-93714365D01*
X115306691Y-93714364D01*
X115306686Y-93714364D01*
X115080002Y-93694532D01*
X115079998Y-93694532D01*
X114853313Y-93714364D01*
X114853302Y-93714366D01*
X114633511Y-93773258D01*
X114633502Y-93773261D01*
X114427267Y-93869431D01*
X114427265Y-93869432D01*
X114240858Y-93999954D01*
X114079954Y-94160858D01*
X113949432Y-94347265D01*
X113949431Y-94347267D01*
X113853261Y-94553502D01*
X113853258Y-94553511D01*
X113794366Y-94773302D01*
X113794364Y-94773313D01*
X113774532Y-94999998D01*
X106224966Y-94999998D01*
X106224966Y-94999997D01*
X106205141Y-94773400D01*
X106205139Y-94773389D01*
X106146269Y-94553682D01*
X106146264Y-94553668D01*
X106050136Y-94347521D01*
X106050132Y-94347513D01*
X105999025Y-94274526D01*
X105320000Y-94953551D01*
X105320000Y-94947339D01*
X105292741Y-94845606D01*
X105240080Y-94754394D01*
X105165606Y-94679920D01*
X105074394Y-94627259D01*
X104972661Y-94600000D01*
X104966448Y-94600000D01*
X105645472Y-93920974D01*
X105572478Y-93869863D01*
X105366331Y-93773735D01*
X105366317Y-93773730D01*
X105146610Y-93714860D01*
X105146599Y-93714858D01*
X104920002Y-93695034D01*
X104919998Y-93695034D01*
X104693400Y-93714858D01*
X104693389Y-93714860D01*
X104473682Y-93773730D01*
X104473673Y-93773734D01*
X104267516Y-93869866D01*
X104267512Y-93869868D01*
X104194526Y-93920973D01*
X104194526Y-93920974D01*
X104873553Y-94600000D01*
X104867339Y-94600000D01*
X104765606Y-94627259D01*
X104674394Y-94679920D01*
X104599920Y-94754394D01*
X104547259Y-94845606D01*
X104520000Y-94947339D01*
X104520000Y-94953552D01*
X103840974Y-94274526D01*
X103840973Y-94274526D01*
X103789868Y-94347512D01*
X103789866Y-94347516D01*
X103693734Y-94553673D01*
X103693730Y-94553682D01*
X103634860Y-94773389D01*
X103634858Y-94773400D01*
X103615034Y-94999997D01*
X95000500Y-94999997D01*
X95000500Y-93108437D01*
X95020185Y-93041398D01*
X95072989Y-92995643D01*
X95142147Y-92985699D01*
X95153145Y-92988291D01*
X95153189Y-92988089D01*
X95159809Y-92989506D01*
X95262519Y-92999999D01*
X96662499Y-92999999D01*
X97162500Y-92999999D01*
X98562472Y-92999999D01*
X98562486Y-92999998D01*
X98665197Y-92989505D01*
X98831619Y-92934358D01*
X98831624Y-92934356D01*
X98980845Y-92842315D01*
X99104815Y-92718345D01*
X99196856Y-92569124D01*
X99196858Y-92569119D01*
X99252005Y-92402697D01*
X99252006Y-92402690D01*
X99262499Y-92299986D01*
X99262500Y-92299973D01*
X99262500Y-92075000D01*
X97162500Y-92075000D01*
X97162500Y-92999999D01*
X96662499Y-92999999D01*
X96662500Y-92999998D01*
X96662500Y-91575000D01*
X97162500Y-91575000D01*
X99262499Y-91575000D01*
X99262499Y-91350028D01*
X99262498Y-91350013D01*
X99252005Y-91247302D01*
X99196858Y-91080880D01*
X99196856Y-91080875D01*
X99104815Y-90931654D01*
X98980845Y-90807684D01*
X98831624Y-90715643D01*
X98831619Y-90715641D01*
X98665197Y-90660494D01*
X98665190Y-90660493D01*
X98562486Y-90650000D01*
X97162500Y-90650000D01*
X97162500Y-91575000D01*
X96662500Y-91575000D01*
X96662500Y-90650000D01*
X95262528Y-90650000D01*
X95262512Y-90650001D01*
X95159798Y-90660494D01*
X95153181Y-90661911D01*
X95152695Y-90659643D01*
X95093650Y-90661662D01*
X95033616Y-90625918D01*
X95002437Y-90563391D01*
X95000500Y-90541561D01*
X95000500Y-88999998D01*
X103614532Y-88999998D01*
X103614532Y-89000001D01*
X103634364Y-89226686D01*
X103634366Y-89226697D01*
X103693258Y-89446488D01*
X103693261Y-89446497D01*
X103789431Y-89652732D01*
X103789432Y-89652734D01*
X103919954Y-89839141D01*
X104080858Y-90000045D01*
X104080861Y-90000047D01*
X104267266Y-90130568D01*
X104473504Y-90226739D01*
X104693308Y-90285635D01*
X104855230Y-90299801D01*
X104919998Y-90305468D01*
X104920000Y-90305468D01*
X104920002Y-90305468D01*
X104976673Y-90300509D01*
X105146692Y-90285635D01*
X105366496Y-90226739D01*
X105572734Y-90130568D01*
X105759139Y-90000047D01*
X105920047Y-89839139D01*
X106050568Y-89652734D01*
X106146739Y-89446496D01*
X106205635Y-89226692D01*
X106225468Y-89000000D01*
X106225468Y-88999998D01*
X113774532Y-88999998D01*
X113774532Y-89000001D01*
X113794364Y-89226686D01*
X113794366Y-89226697D01*
X113853258Y-89446488D01*
X113853261Y-89446497D01*
X113949431Y-89652732D01*
X113949432Y-89652734D01*
X114079954Y-89839141D01*
X114240858Y-90000045D01*
X114240861Y-90000047D01*
X114427266Y-90130568D01*
X114633504Y-90226739D01*
X114853308Y-90285635D01*
X115015230Y-90299801D01*
X115079998Y-90305468D01*
X115080000Y-90305468D01*
X115080002Y-90305468D01*
X115136673Y-90300509D01*
X115306692Y-90285635D01*
X115526496Y-90226739D01*
X115732734Y-90130568D01*
X115919139Y-90000047D01*
X116080047Y-89839139D01*
X116210568Y-89652734D01*
X116306739Y-89446496D01*
X116365635Y-89226692D01*
X116385468Y-89000000D01*
X116382406Y-88965000D01*
X121459345Y-88965000D01*
X121479917Y-89173876D01*
X121540844Y-89374723D01*
X121639779Y-89559818D01*
X121639783Y-89559825D01*
X121772932Y-89722067D01*
X121935174Y-89855216D01*
X121935181Y-89855220D01*
X122120276Y-89954155D01*
X122120278Y-89954156D01*
X122321126Y-90015083D01*
X122530000Y-90035655D01*
X122738874Y-90015083D01*
X122939722Y-89954156D01*
X123124824Y-89855217D01*
X123287067Y-89722067D01*
X123420217Y-89559824D01*
X123519156Y-89374722D01*
X123580083Y-89173874D01*
X123600655Y-88965000D01*
X123580083Y-88756126D01*
X123519156Y-88555278D01*
X123460289Y-88445145D01*
X123420220Y-88370181D01*
X123420216Y-88370174D01*
X123287067Y-88207932D01*
X123124825Y-88074783D01*
X123124818Y-88074779D01*
X122939723Y-87975844D01*
X122738876Y-87914917D01*
X122530000Y-87894345D01*
X122321123Y-87914917D01*
X122120276Y-87975844D01*
X121935181Y-88074779D01*
X121935174Y-88074783D01*
X121772932Y-88207932D01*
X121639783Y-88370174D01*
X121639779Y-88370181D01*
X121540844Y-88555276D01*
X121479917Y-88756123D01*
X121459345Y-88965000D01*
X116382406Y-88965000D01*
X116365635Y-88773308D01*
X116306739Y-88553504D01*
X116210568Y-88347266D01*
X116080047Y-88160861D01*
X116080045Y-88160858D01*
X115919141Y-87999954D01*
X115732734Y-87869432D01*
X115732732Y-87869431D01*
X115526497Y-87773261D01*
X115526488Y-87773258D01*
X115306697Y-87714366D01*
X115306693Y-87714365D01*
X115306692Y-87714365D01*
X115306691Y-87714364D01*
X115306686Y-87714364D01*
X115080002Y-87694532D01*
X115079998Y-87694532D01*
X114853313Y-87714364D01*
X114853302Y-87714366D01*
X114633511Y-87773258D01*
X114633502Y-87773261D01*
X114427267Y-87869431D01*
X114427265Y-87869432D01*
X114240858Y-87999954D01*
X114079954Y-88160858D01*
X113949432Y-88347265D01*
X113949431Y-88347267D01*
X113853261Y-88553502D01*
X113853258Y-88553511D01*
X113794366Y-88773302D01*
X113794364Y-88773313D01*
X113774532Y-88999998D01*
X106225468Y-88999998D01*
X106205635Y-88773308D01*
X106146739Y-88553504D01*
X106050568Y-88347266D01*
X105920047Y-88160861D01*
X105920045Y-88160858D01*
X105759141Y-87999954D01*
X105572734Y-87869432D01*
X105572732Y-87869431D01*
X105366497Y-87773261D01*
X105366488Y-87773258D01*
X105146697Y-87714366D01*
X105146693Y-87714365D01*
X105146692Y-87714365D01*
X105146691Y-87714364D01*
X105146686Y-87714364D01*
X104920002Y-87694532D01*
X104919998Y-87694532D01*
X104693313Y-87714364D01*
X104693302Y-87714366D01*
X104473511Y-87773258D01*
X104473502Y-87773261D01*
X104267267Y-87869431D01*
X104267265Y-87869432D01*
X104080858Y-87999954D01*
X103919954Y-88160858D01*
X103789432Y-88347265D01*
X103789431Y-88347267D01*
X103693261Y-88553502D01*
X103693258Y-88553511D01*
X103634366Y-88773302D01*
X103634364Y-88773313D01*
X103614532Y-88999998D01*
X95000500Y-88999998D01*
X95000500Y-87458437D01*
X95020185Y-87391398D01*
X95072989Y-87345643D01*
X95142147Y-87335699D01*
X95153145Y-87338291D01*
X95153189Y-87338089D01*
X95159809Y-87339506D01*
X95262519Y-87349999D01*
X96662499Y-87349999D01*
X97162500Y-87349999D01*
X98562472Y-87349999D01*
X98562486Y-87349998D01*
X98665197Y-87339505D01*
X98831619Y-87284358D01*
X98831624Y-87284356D01*
X98980845Y-87192315D01*
X99104815Y-87068345D01*
X99196856Y-86919124D01*
X99196858Y-86919119D01*
X99252005Y-86752697D01*
X99252006Y-86752690D01*
X99262499Y-86649986D01*
X99262500Y-86649973D01*
X99262500Y-86425000D01*
X97162500Y-86425000D01*
X97162500Y-87349999D01*
X96662499Y-87349999D01*
X96662500Y-87349998D01*
X96662500Y-85925000D01*
X97162500Y-85925000D01*
X99262499Y-85925000D01*
X99262499Y-85812135D01*
X121464500Y-85812135D01*
X121464500Y-87037870D01*
X121464501Y-87037876D01*
X121470908Y-87097483D01*
X121521202Y-87232328D01*
X121521206Y-87232335D01*
X121607452Y-87347544D01*
X121607454Y-87347546D01*
X121722664Y-87433793D01*
X121722671Y-87433797D01*
X121857517Y-87484091D01*
X121857516Y-87484091D01*
X121864444Y-87484835D01*
X121917127Y-87490500D01*
X123142872Y-87490499D01*
X123202483Y-87484091D01*
X123337331Y-87433796D01*
X123452546Y-87347546D01*
X123538796Y-87232331D01*
X123589091Y-87097483D01*
X123595500Y-87037873D01*
X123595499Y-85812128D01*
X123589091Y-85752517D01*
X123569508Y-85700013D01*
X123538797Y-85617671D01*
X123538793Y-85617664D01*
X123452547Y-85502455D01*
X123452544Y-85502452D01*
X123337335Y-85416206D01*
X123337328Y-85416202D01*
X123202482Y-85365908D01*
X123202483Y-85365908D01*
X123142883Y-85359501D01*
X123142881Y-85359500D01*
X123142873Y-85359500D01*
X123142864Y-85359500D01*
X121917129Y-85359500D01*
X121917123Y-85359501D01*
X121857516Y-85365908D01*
X121722671Y-85416202D01*
X121722664Y-85416206D01*
X121607455Y-85502452D01*
X121607452Y-85502455D01*
X121521206Y-85617664D01*
X121521202Y-85617671D01*
X121470908Y-85752517D01*
X121464501Y-85812116D01*
X121464501Y-85812123D01*
X121464500Y-85812135D01*
X99262499Y-85812135D01*
X99262499Y-85700028D01*
X99262498Y-85700013D01*
X99252005Y-85597302D01*
X99196858Y-85430880D01*
X99196856Y-85430875D01*
X99104815Y-85281654D01*
X98980845Y-85157684D01*
X98831624Y-85065643D01*
X98831619Y-85065641D01*
X98665197Y-85010494D01*
X98665190Y-85010493D01*
X98562486Y-85000000D01*
X97162500Y-85000000D01*
X97162500Y-85925000D01*
X96662500Y-85925000D01*
X96662500Y-85000000D01*
X95262528Y-85000000D01*
X95262512Y-85000001D01*
X95159798Y-85010494D01*
X95153181Y-85011911D01*
X95152695Y-85009643D01*
X95093650Y-85011662D01*
X95033616Y-84975918D01*
X95002437Y-84913391D01*
X95000500Y-84891561D01*
X95000500Y-82749999D01*
X103641127Y-82749999D01*
X103641128Y-82750000D01*
X104604314Y-82750000D01*
X104599920Y-82754394D01*
X104547259Y-82845606D01*
X104520000Y-82947339D01*
X104520000Y-83052661D01*
X104547259Y-83154394D01*
X104599920Y-83245606D01*
X104604314Y-83250000D01*
X103641128Y-83250000D01*
X103693730Y-83446317D01*
X103693734Y-83446326D01*
X103789865Y-83652482D01*
X103920342Y-83838820D01*
X104081179Y-83999657D01*
X104267517Y-84130134D01*
X104473673Y-84226265D01*
X104473682Y-84226269D01*
X104669999Y-84278872D01*
X104670000Y-84278871D01*
X104670000Y-83315686D01*
X104674394Y-83320080D01*
X104765606Y-83372741D01*
X104867339Y-83400000D01*
X104972661Y-83400000D01*
X105074394Y-83372741D01*
X105165606Y-83320080D01*
X105170000Y-83315686D01*
X105170000Y-84278872D01*
X105366317Y-84226269D01*
X105366326Y-84226265D01*
X105572482Y-84130134D01*
X105758820Y-83999657D01*
X105919657Y-83838820D01*
X106050134Y-83652482D01*
X106146265Y-83446326D01*
X106146269Y-83446317D01*
X106198872Y-83250000D01*
X105235686Y-83250000D01*
X105240080Y-83245606D01*
X105292741Y-83154394D01*
X105320000Y-83052661D01*
X105320000Y-82999998D01*
X113774532Y-82999998D01*
X113774532Y-83000001D01*
X113794364Y-83226686D01*
X113794366Y-83226697D01*
X113853258Y-83446488D01*
X113853261Y-83446497D01*
X113949431Y-83652732D01*
X113949432Y-83652734D01*
X114079954Y-83839141D01*
X114240858Y-84000045D01*
X114240861Y-84000047D01*
X114427266Y-84130568D01*
X114633504Y-84226739D01*
X114853308Y-84285635D01*
X115015230Y-84299801D01*
X115079998Y-84305468D01*
X115080000Y-84305468D01*
X115080002Y-84305468D01*
X115136673Y-84300509D01*
X115306692Y-84285635D01*
X115526496Y-84226739D01*
X115732734Y-84130568D01*
X115919139Y-84000047D01*
X116080047Y-83839139D01*
X116210568Y-83652734D01*
X116306739Y-83446496D01*
X116365635Y-83226692D01*
X116385468Y-83000000D01*
X116365635Y-82773308D01*
X116306739Y-82553504D01*
X116210568Y-82347266D01*
X116093448Y-82180000D01*
X116080045Y-82160858D01*
X115919141Y-81999954D01*
X115732734Y-81869432D01*
X115732732Y-81869431D01*
X115526497Y-81773261D01*
X115526488Y-81773258D01*
X115306697Y-81714366D01*
X115306693Y-81714365D01*
X115306692Y-81714365D01*
X115306691Y-81714364D01*
X115306686Y-81714364D01*
X115080002Y-81694532D01*
X115079998Y-81694532D01*
X114853313Y-81714364D01*
X114853302Y-81714366D01*
X114633511Y-81773258D01*
X114633502Y-81773261D01*
X114427267Y-81869431D01*
X114427265Y-81869432D01*
X114240858Y-81999954D01*
X114079954Y-82160858D01*
X113949432Y-82347265D01*
X113949431Y-82347267D01*
X113853261Y-82553502D01*
X113853258Y-82553511D01*
X113794366Y-82773302D01*
X113794364Y-82773313D01*
X113774532Y-82999998D01*
X105320000Y-82999998D01*
X105320000Y-82947339D01*
X105292741Y-82845606D01*
X105240080Y-82754394D01*
X105235686Y-82750000D01*
X106198872Y-82750000D01*
X106198872Y-82749999D01*
X106146269Y-82553682D01*
X106146265Y-82553673D01*
X106050134Y-82347517D01*
X105919657Y-82161179D01*
X105758820Y-82000342D01*
X105572482Y-81869865D01*
X105366328Y-81773734D01*
X105170000Y-81721127D01*
X105170000Y-82684314D01*
X105165606Y-82679920D01*
X105074394Y-82627259D01*
X104972661Y-82600000D01*
X104867339Y-82600000D01*
X104765606Y-82627259D01*
X104674394Y-82679920D01*
X104670000Y-82684314D01*
X104670000Y-81721127D01*
X104473671Y-81773734D01*
X104267517Y-81869865D01*
X104081179Y-82000342D01*
X103920342Y-82161179D01*
X103789865Y-82347517D01*
X103693734Y-82553673D01*
X103693730Y-82553682D01*
X103641127Y-82749999D01*
X95000500Y-82749999D01*
X95000500Y-78544997D01*
X114695034Y-78544997D01*
X114695034Y-78545002D01*
X114714858Y-78771599D01*
X114714860Y-78771610D01*
X114773730Y-78991317D01*
X114773735Y-78991331D01*
X114869863Y-79197478D01*
X114920974Y-79270472D01*
X115600000Y-78591446D01*
X115600000Y-78597661D01*
X115627259Y-78699394D01*
X115679920Y-78790606D01*
X115754394Y-78865080D01*
X115845606Y-78917741D01*
X115947339Y-78945000D01*
X115953553Y-78945000D01*
X115274526Y-79624025D01*
X115347513Y-79675132D01*
X115347521Y-79675136D01*
X115553668Y-79771264D01*
X115553682Y-79771269D01*
X115773389Y-79830139D01*
X115773400Y-79830141D01*
X115999998Y-79849966D01*
X116000002Y-79849966D01*
X116226599Y-79830141D01*
X116226610Y-79830139D01*
X116446317Y-79771269D01*
X116446331Y-79771264D01*
X116652478Y-79675136D01*
X116725471Y-79624024D01*
X116046447Y-78945000D01*
X116052661Y-78945000D01*
X116154394Y-78917741D01*
X116245606Y-78865080D01*
X116320080Y-78790606D01*
X116372741Y-78699394D01*
X116400000Y-78597661D01*
X116400000Y-78591447D01*
X117079024Y-79270471D01*
X117130136Y-79197478D01*
X117226264Y-78991331D01*
X117226269Y-78991317D01*
X117285139Y-78771610D01*
X117285141Y-78771599D01*
X117304966Y-78545002D01*
X117304966Y-78544997D01*
X117285141Y-78318400D01*
X117285139Y-78318389D01*
X117226269Y-78098682D01*
X117226264Y-78098668D01*
X117130136Y-77892521D01*
X117130132Y-77892513D01*
X117079025Y-77819526D01*
X116400000Y-78498551D01*
X116400000Y-78492339D01*
X116372741Y-78390606D01*
X116320080Y-78299394D01*
X116245606Y-78224920D01*
X116154394Y-78172259D01*
X116052661Y-78145000D01*
X116046448Y-78145000D01*
X116725472Y-77465974D01*
X116652478Y-77414863D01*
X116446331Y-77318735D01*
X116446317Y-77318730D01*
X116226610Y-77259860D01*
X116226599Y-77259858D01*
X116000002Y-77240034D01*
X115999998Y-77240034D01*
X115773400Y-77259858D01*
X115773389Y-77259860D01*
X115553682Y-77318730D01*
X115553673Y-77318734D01*
X115347516Y-77414866D01*
X115347512Y-77414868D01*
X115274526Y-77465973D01*
X115274526Y-77465974D01*
X115953553Y-78145000D01*
X115947339Y-78145000D01*
X115845606Y-78172259D01*
X115754394Y-78224920D01*
X115679920Y-78299394D01*
X115627259Y-78390606D01*
X115600000Y-78492339D01*
X115600000Y-78498552D01*
X114920974Y-77819526D01*
X114920973Y-77819526D01*
X114869868Y-77892512D01*
X114869866Y-77892516D01*
X114773734Y-78098673D01*
X114773730Y-78098682D01*
X114714860Y-78318389D01*
X114714858Y-78318400D01*
X114695034Y-78544997D01*
X95000500Y-78544997D01*
X95000500Y-70385258D01*
X97249500Y-70385258D01*
X97249500Y-70614741D01*
X97274446Y-70804215D01*
X97279452Y-70842238D01*
X97338842Y-71063887D01*
X97426650Y-71275876D01*
X97426657Y-71275890D01*
X97541392Y-71474617D01*
X97681081Y-71656661D01*
X97681089Y-71656670D01*
X97843330Y-71818911D01*
X97843338Y-71818918D01*
X98025382Y-71958607D01*
X98025385Y-71958608D01*
X98025388Y-71958611D01*
X98224112Y-72073344D01*
X98224117Y-72073346D01*
X98224123Y-72073349D01*
X98315480Y-72111190D01*
X98436113Y-72161158D01*
X98657762Y-72220548D01*
X98885266Y-72250500D01*
X98885273Y-72250500D01*
X99114727Y-72250500D01*
X99114734Y-72250500D01*
X99342238Y-72220548D01*
X99563887Y-72161158D01*
X99775888Y-72073344D01*
X99974612Y-71958611D01*
X100156661Y-71818919D01*
X100156665Y-71818914D01*
X100156670Y-71818911D01*
X100318911Y-71656670D01*
X100318914Y-71656665D01*
X100318919Y-71656661D01*
X100458611Y-71474612D01*
X100573344Y-71275888D01*
X100661158Y-71063887D01*
X100720548Y-70842238D01*
X100750500Y-70614734D01*
X100750500Y-70385266D01*
X100750499Y-70385258D01*
X149749500Y-70385258D01*
X149749500Y-70614741D01*
X149774446Y-70804215D01*
X149779452Y-70842238D01*
X149838842Y-71063887D01*
X149926650Y-71275876D01*
X149926657Y-71275890D01*
X150041392Y-71474617D01*
X150181081Y-71656661D01*
X150181089Y-71656670D01*
X150343330Y-71818911D01*
X150343338Y-71818918D01*
X150525382Y-71958607D01*
X150525385Y-71958608D01*
X150525388Y-71958611D01*
X150724112Y-72073344D01*
X150724117Y-72073346D01*
X150724123Y-72073349D01*
X150815480Y-72111190D01*
X150936113Y-72161158D01*
X151157762Y-72220548D01*
X151385266Y-72250500D01*
X151385273Y-72250500D01*
X151614727Y-72250500D01*
X151614734Y-72250500D01*
X151842238Y-72220548D01*
X152063887Y-72161158D01*
X152275888Y-72073344D01*
X152474612Y-71958611D01*
X152656661Y-71818919D01*
X152656665Y-71818914D01*
X152656670Y-71818911D01*
X152818911Y-71656670D01*
X152818914Y-71656665D01*
X152818919Y-71656661D01*
X152958611Y-71474612D01*
X153073344Y-71275888D01*
X153161158Y-71063887D01*
X153220548Y-70842238D01*
X153250500Y-70614734D01*
X153250500Y-70385266D01*
X153220548Y-70157762D01*
X153161158Y-69936113D01*
X153073344Y-69724112D01*
X152958611Y-69525388D01*
X152958608Y-69525385D01*
X152958607Y-69525382D01*
X152818918Y-69343338D01*
X152818911Y-69343330D01*
X152656670Y-69181089D01*
X152656661Y-69181081D01*
X152474617Y-69041392D01*
X152275890Y-68926657D01*
X152275876Y-68926650D01*
X152063887Y-68838842D01*
X151842238Y-68779452D01*
X151804215Y-68774446D01*
X151614741Y-68749500D01*
X151614734Y-68749500D01*
X151385266Y-68749500D01*
X151385258Y-68749500D01*
X151168715Y-68778009D01*
X151157762Y-68779452D01*
X151064076Y-68804554D01*
X150936112Y-68838842D01*
X150724123Y-68926650D01*
X150724109Y-68926657D01*
X150525382Y-69041392D01*
X150343338Y-69181081D01*
X150181081Y-69343338D01*
X150041392Y-69525382D01*
X149926657Y-69724109D01*
X149926650Y-69724123D01*
X149838842Y-69936112D01*
X149779453Y-70157759D01*
X149779451Y-70157770D01*
X149749500Y-70385258D01*
X100750499Y-70385258D01*
X100720548Y-70157762D01*
X100661158Y-69936113D01*
X100573344Y-69724112D01*
X100458611Y-69525388D01*
X100458608Y-69525385D01*
X100458607Y-69525382D01*
X100318918Y-69343338D01*
X100318911Y-69343330D01*
X100156670Y-69181089D01*
X100156661Y-69181081D01*
X99974617Y-69041392D01*
X99775890Y-68926657D01*
X99775876Y-68926650D01*
X99563887Y-68838842D01*
X99342238Y-68779452D01*
X99304215Y-68774446D01*
X99114741Y-68749500D01*
X99114734Y-68749500D01*
X98885266Y-68749500D01*
X98885258Y-68749500D01*
X98668715Y-68778009D01*
X98657762Y-68779452D01*
X98564076Y-68804554D01*
X98436112Y-68838842D01*
X98224123Y-68926650D01*
X98224109Y-68926657D01*
X98025382Y-69041392D01*
X97843338Y-69181081D01*
X97681081Y-69343338D01*
X97541392Y-69525382D01*
X97426657Y-69724109D01*
X97426650Y-69724123D01*
X97338842Y-69936112D01*
X97279453Y-70157759D01*
X97279451Y-70157770D01*
X97249500Y-70385258D01*
X95000500Y-70385258D01*
X95000500Y-66624500D01*
X95020185Y-66557461D01*
X95072989Y-66511706D01*
X95124500Y-66500500D01*
X155375500Y-66500500D01*
X155442539Y-66520185D01*
G37*
%TD.AperFunction*%
%TD*%
M02*
