M48
; DRILL file {KiCad 8.0.6} date 2025-07-03T11:32:33-0400
; FORMAT={-:-/ absolute / metric / decimal}
; #@! TF.CreationDate,2025-07-03T11:32:33-04:00
; #@! TF.GenerationSoftware,Kicad,Pcbnew,8.0.6
; #@! TF.FileFunction,Plated,1,2,PTH
FMAT,2
METRIC
; #@! TA.AperFunction,Plated,PTH,ViaDrill
T1C0.300
; #@! TA.AperFunction,Plated,PTH,ComponentDrill
T2C0.730
; #@! TA.AperFunction,Plated,PTH,ComponentDrill
T3C0.800
; #@! TA.AperFunction,Plated,PTH,ComponentDrill
T4C1.000
%
G90
G05
T1
X100.5Y-100.5
X106.5Y-77.5
X110.5Y-102.5
X134.5Y-103.0
T2
X122.53Y-86.425
X122.53Y-88.965
X122.53Y-91.505
X122.53Y-94.045
X122.53Y-96.585
X122.53Y-99.125
X122.53Y-101.665
X130.47Y-86.425
X130.47Y-88.965
X130.47Y-91.505
X130.47Y-94.045
X130.47Y-96.585
X130.47Y-99.125
X130.47Y-101.665
T3
X104.92Y-83.0
X104.92Y-89.0
X104.92Y-95.0
X115.08Y-83.0
X115.08Y-89.0
X115.08Y-95.0
X116.0Y-78.545
X126.16Y-78.545
X135.0Y-80.25
X135.0Y-82.75
X135.0Y-86.42
X135.0Y-96.58
T4
X142.96Y-72.02
X142.96Y-74.56
X142.96Y-77.1
X142.96Y-79.64
X142.96Y-82.18
X142.96Y-84.72
X142.96Y-87.26
X142.96Y-89.8
X142.96Y-92.34
X142.96Y-94.88
X142.96Y-97.42
X142.96Y-99.96
X142.96Y-102.5
X142.96Y-105.04
X142.96Y-107.58
X145.5Y-72.02
X145.5Y-74.56
X145.5Y-77.1
X145.5Y-79.64
X145.5Y-82.18
X145.5Y-84.72
X145.5Y-87.26
X145.5Y-89.8
X145.5Y-92.34
X145.5Y-94.88
X145.5Y-97.42
X145.5Y-99.96
X145.5Y-102.5
X145.5Y-105.04
X145.5Y-107.58
M30
